<svg width="208" height="76" viewBox="0 0 208 76" fill="none" xmlns="http://www.w3.org/2000/svg">
<path d="M35.2308 74.0589V70.6243H35.794C35.9448 70.5073 36.071 70.3488 36.1726 70.1488C36.2741 69.9457 36.3572 69.7071 36.4219 69.4332C36.4896 69.1562 36.545 68.8469 36.5881 68.5053C36.6312 68.1606 36.6696 67.7898 36.7035 67.3928L36.9066 64.9091H42.0309V70.6243H43.1296V74.0589H41.5138V72H36.8743V74.0589H35.2308ZM37.5114 70.6243H40.4336V66.2571H38.3562L38.2454 67.3928C38.1838 68.1437 38.1023 68.7869 38.0007 69.3224C37.8991 69.858 37.736 70.2919 37.5114 70.6243ZM46.9503 72.1385C46.2578 72.1385 45.6576 71.9862 45.1498 71.6815C44.642 71.3768 44.2481 70.9505 43.968 70.4027C43.691 69.8549 43.5525 69.2147 43.5525 68.4822C43.5525 67.7498 43.691 67.1081 43.968 66.5572C44.2481 66.0063 44.642 65.5785 45.1498 65.2738C45.6576 64.9691 46.2578 64.8168 46.9503 64.8168C47.6427 64.8168 48.2429 64.9691 48.7507 65.2738C49.2585 65.5785 49.6509 66.0063 49.9279 66.5572C50.208 67.1081 50.348 67.7498 50.348 68.4822C50.348 69.2147 50.208 69.8549 49.9279 70.4027C49.6509 70.9505 49.2585 71.3768 48.7507 71.6815C48.2429 71.9862 47.6427 72.1385 46.9503 72.1385ZM46.9595 70.7997C47.335 70.7997 47.6489 70.6966 47.9013 70.4904C48.1536 70.2811 48.3414 70.0011 48.4645 69.6502C48.5906 69.2994 48.6537 68.9085 48.6537 68.4776C48.6537 68.0437 48.5906 67.6513 48.4645 67.3004C48.3414 66.9465 48.1536 66.6649 47.9013 66.4556C47.6489 66.2463 47.335 66.1417 46.9595 66.1417C46.5748 66.1417 46.2547 66.2463 45.9993 66.4556C45.7469 66.6649 45.5576 66.9465 45.4314 67.3004C45.3083 67.6513 45.2468 68.0437 45.2468 68.4776C45.2468 68.9085 45.3083 69.2994 45.4314 69.6502C45.5576 70.0011 45.7469 70.2811 45.9993 70.4904C46.2547 70.6966 46.5748 70.7997 46.9595 70.7997ZM52.3463 64.9091L53.7774 67.5266L55.2316 64.9091H56.9997L54.8623 68.4545L57.0366 72H55.2777L53.7774 69.4471L52.2909 72H50.5181L52.6787 68.4545L50.5735 64.9091H52.3463ZM60.5987 72.1385C59.9063 72.1385 59.3061 71.9862 58.7983 71.6815C58.2905 71.3768 57.8966 70.9505 57.6165 70.4027C57.3395 69.8549 57.201 69.2147 57.201 68.4822C57.201 67.7498 57.3395 67.1081 57.6165 66.5572C57.8966 66.0063 58.2905 65.5785 58.7983 65.2738C59.3061 64.9691 59.9063 64.8168 60.5987 64.8168C61.2912 64.8168 61.8914 64.9691 62.3992 65.2738C62.907 65.5785 63.2994 66.0063 63.5764 66.5572C63.8564 67.1081 63.9965 67.7498 63.9965 68.4822C63.9965 69.2147 63.8564 69.8549 63.5764 70.4027C63.2994 70.9505 62.907 71.3768 62.3992 71.6815C61.8914 71.9862 61.2912 72.1385 60.5987 72.1385ZM60.608 70.7997C60.9834 70.7997 61.2974 70.6966 61.5497 70.4904C61.8021 70.2811 61.9898 70.0011 62.1129 69.6502C62.2391 69.2994 62.3022 68.9085 62.3022 68.4776C62.3022 68.0437 62.2391 67.6513 62.1129 67.3004C61.9898 66.9465 61.8021 66.6649 61.5497 66.4556C61.2974 66.2463 60.9834 66.1417 60.608 66.1417C60.2233 66.1417 59.9032 66.2463 59.6477 66.4556C59.3954 66.6649 59.2061 66.9465 59.0799 67.3004C58.9568 67.6513 58.8953 68.0437 58.8953 68.4776C58.8953 68.9085 58.9568 69.2994 59.0799 69.6502C59.2061 70.0011 59.3954 70.2811 59.6477 70.4904C59.9032 70.6966 60.2233 70.7997 60.608 70.7997ZM64.267 74.0589V70.6243H64.8302C64.9811 70.5073 65.1072 70.3488 65.2088 70.1488C65.3104 69.9457 65.3935 69.7071 65.4581 69.4332C65.5258 69.1562 65.5812 68.8469 65.6243 68.5053C65.6674 68.1606 65.7058 67.7898 65.7397 67.3928L65.9428 64.9091H71.0671V70.6243H72.1658V74.0589H70.5501V72H65.9105V74.0589H64.267ZM66.5476 70.6243H69.4698V66.2571H67.3924L67.2816 67.3928C67.22 68.1437 67.1385 68.7869 67.0369 69.3224C66.9354 69.858 66.7722 70.2919 66.5476 70.6243ZM77.7638 67.7621V69.1332H73.9875V67.7621H77.7638ZM74.5046 64.9091V72H72.8934V64.9091H74.5046ZM78.8579 64.9091V72H77.2514V64.9091H78.8579ZM83.1217 72.1385C82.4293 72.1385 81.8291 71.9862 81.3213 71.6815C80.8135 71.3768 80.4196 70.9505 80.1395 70.4027C79.8625 69.8549 79.724 69.2147 79.724 68.4822C79.724 67.7498 79.8625 67.1081 80.1395 66.5572C80.4196 66.0063 80.8135 65.5785 81.3213 65.2738C81.8291 64.9691 82.4293 64.8168 83.1217 64.8168C83.8142 64.8168 84.4144 64.9691 84.9222 65.2738C85.43 65.5785 85.8224 66.0063 86.0994 66.5572C86.3794 67.1081 86.5195 67.7498 86.5195 68.4822C86.5195 69.2147 86.3794 69.8549 86.0994 70.4027C85.8224 70.9505 85.43 71.3768 84.9222 71.6815C84.4144 71.9862 83.8142 72.1385 83.1217 72.1385ZM83.131 70.7997C83.5065 70.7997 83.8204 70.6966 84.0727 70.4904C84.3251 70.2811 84.5128 70.0011 84.6359 69.6502C84.7621 69.2994 84.8252 68.9085 84.8252 68.4776C84.8252 68.0437 84.7621 67.6513 84.6359 67.3004C84.5128 66.9465 84.3251 66.6649 84.0727 66.4556C83.8204 66.2463 83.5065 66.1417 83.131 66.1417C82.7463 66.1417 82.4262 66.2463 82.1708 66.4556C81.9184 66.6649 81.7291 66.9465 81.6029 67.3004C81.4798 67.6513 81.4183 68.0437 81.4183 68.4776C81.4183 68.9085 81.4798 69.2994 81.6029 69.6502C81.7291 70.0011 81.9184 70.2811 82.1708 70.4904C82.4262 70.6966 82.7463 70.7997 83.131 70.7997ZM90.5109 72.1385C89.8031 72.1385 89.1952 71.9831 88.6874 71.6722C88.1827 71.3614 87.7934 70.9321 87.5194 70.3842C87.2486 69.8333 87.1132 69.1993 87.1132 68.4822C87.1132 67.7621 87.2517 67.1265 87.5287 66.5756C87.8057 66.0217 88.1965 65.5908 88.7013 65.283C89.2091 64.9722 89.8092 64.8168 90.5017 64.8168C91.0772 64.8168 91.5866 64.9229 92.0297 65.1353C92.476 65.3446 92.8315 65.6416 93.0962 66.0263C93.3608 66.4079 93.5116 66.8542 93.5486 67.3651H91.9513C91.8866 67.0234 91.7328 66.7388 91.4896 66.511C91.2496 66.2802 90.9279 66.1648 90.5248 66.1648C90.1832 66.1648 89.8831 66.2571 89.6246 66.4418C89.366 66.6233 89.1645 66.8849 89.0198 67.2266C88.8782 67.5682 88.8074 67.9775 88.8074 68.4545C88.8074 68.9377 88.8782 69.3532 89.0198 69.701C89.1614 70.0457 89.3599 70.3119 89.6153 70.4996C89.8739 70.6843 90.177 70.7766 90.5248 70.7766C90.771 70.7766 90.991 70.7305 91.1849 70.6381C91.3819 70.5427 91.5466 70.4058 91.6789 70.2273C91.8112 70.0488 91.902 69.8318 91.9513 69.5763H93.5486C93.5086 70.078 93.3608 70.5227 93.1054 70.9105C92.8499 71.2952 92.5022 71.5968 92.0621 71.8153C91.622 72.0308 91.1049 72.1385 90.5109 72.1385ZM93.8861 66.2802V64.9091H100.091V66.2802H97.7962V72H96.1805V66.2802H93.8861ZM102.032 67.2173H104.124C105.028 67.2173 105.729 67.4374 106.224 67.8775C106.72 68.3176 106.969 68.8946 106.972 69.6087C106.969 70.0734 106.855 70.4858 106.63 70.8459C106.409 71.206 106.086 71.4891 105.661 71.6953C105.239 71.8984 104.727 72 104.124 72H100.901V64.9091H102.512V70.6289H104.124C104.487 70.6289 104.785 70.5366 105.019 70.3519C105.253 70.1642 105.37 69.9241 105.37 69.6317C105.37 69.324 105.253 69.0732 105.019 68.8793C104.785 68.6854 104.487 68.5884 104.124 68.5884H102.032V67.2173ZM110.589 72V64.9091H113.566C114.407 64.9091 115.07 65.0768 115.556 65.4123C116.046 65.7478 116.29 66.2156 116.29 66.8157C116.29 67.2127 116.152 67.5374 115.875 67.7898C115.601 68.0391 115.227 68.2068 114.753 68.293C115.125 68.3237 115.452 68.4176 115.732 68.5746C116.015 68.7315 116.236 68.9377 116.396 69.1932C116.556 69.4486 116.636 69.7425 116.636 70.0749C116.636 70.4658 116.533 70.8059 116.327 71.0952C116.124 71.3814 115.827 71.6045 115.436 71.7646C115.048 71.9215 114.577 72 114.024 72H110.589ZM112.154 70.6843H114.024C114.331 70.6843 114.573 70.612 114.748 70.4673C114.924 70.3196 115.011 70.1196 115.011 69.8672C115.011 69.5748 114.924 69.3455 114.748 69.1793C114.573 69.0101 114.331 68.9254 114.024 68.9254H112.154V70.6843ZM112.154 67.8452H113.599C113.827 67.8452 114.022 67.8129 114.185 67.7482C114.348 67.6805 114.473 67.5866 114.559 67.4666C114.645 67.3435 114.688 67.1973 114.688 67.0281C114.688 66.7849 114.588 66.5941 114.388 66.4556C114.191 66.3171 113.917 66.2479 113.566 66.2479H112.154V67.8452ZM120.2 72V64.9091H126.188V72H124.577V66.2802H121.798V72H120.2ZM130.525 72.1385C129.815 72.1385 129.201 71.9908 128.684 71.6953C128.17 71.3968 127.774 70.9751 127.497 70.4304C127.22 69.8826 127.082 69.2378 127.082 68.4961C127.082 67.7667 127.22 67.1265 127.497 66.5756C127.777 66.0217 128.168 65.5908 128.67 65.283C129.171 64.9722 129.761 64.8168 130.438 64.8168C130.875 64.8168 131.287 64.8875 131.675 65.0291C132.066 65.1676 132.411 65.383 132.709 65.6754C133.011 65.9678 133.248 66.3402 133.42 66.7926C133.592 67.242 133.679 67.7775 133.679 68.3991V68.9116H127.866V67.7852H132.077C132.074 67.4651 132.004 67.1804 131.869 66.9311C131.733 66.6787 131.544 66.4802 131.301 66.3356C131.061 66.1909 130.781 66.1186 130.461 66.1186C130.119 66.1186 129.819 66.2017 129.561 66.3679C129.302 66.531 129.101 66.7464 128.956 67.0142C128.814 67.2789 128.742 67.5697 128.739 67.8867V68.87C128.739 69.2824 128.814 69.6364 128.965 69.9318C129.116 70.2242 129.327 70.4489 129.598 70.6058C129.868 70.7597 130.185 70.8366 130.549 70.8366C130.792 70.8366 131.012 70.8028 131.209 70.7351C131.406 70.6643 131.577 70.5612 131.721 70.4258C131.866 70.2904 131.975 70.1226 132.049 69.9226L133.609 70.098C133.511 70.5104 133.323 70.8705 133.046 71.1783C132.772 71.483 132.421 71.7199 131.994 71.8892C131.566 72.0554 131.076 72.1385 130.525 72.1385ZM134.572 74.6591V64.9091H136.216V66.0817H136.313C136.399 65.9093 136.52 65.7262 136.677 65.5323C136.834 65.3353 137.047 65.1676 137.315 65.0291C137.582 64.8875 137.924 64.8168 138.339 64.8168C138.887 64.8168 139.381 64.9568 139.821 65.2369C140.264 65.5138 140.615 65.9247 140.874 66.4695C141.135 67.0111 141.266 67.6759 141.266 68.4638C141.266 69.2424 141.139 69.9041 140.883 70.4489C140.628 70.9936 140.28 71.4091 139.84 71.6953C139.4 71.9815 138.901 72.1246 138.344 72.1246C137.938 72.1246 137.601 72.0569 137.333 71.9215C137.065 71.7861 136.85 71.623 136.687 71.4322C136.527 71.2383 136.402 71.0552 136.313 70.8828H136.243V74.6591H134.572ZM136.211 68.4545C136.211 68.9131 136.276 69.3147 136.405 69.6594C136.537 70.0041 136.727 70.2734 136.973 70.4673C137.222 70.6581 137.524 70.7536 137.878 70.7536C138.247 70.7536 138.556 70.6551 138.806 70.4581C139.055 70.258 139.243 69.9857 139.369 69.641C139.498 69.2932 139.563 68.8977 139.563 68.4545C139.563 68.0144 139.5 67.6236 139.373 67.282C139.247 66.9403 139.06 66.6726 138.81 66.4787C138.561 66.2848 138.25 66.1879 137.878 66.1879C137.521 66.1879 137.218 66.2817 136.968 66.4695C136.719 66.6572 136.53 66.9203 136.4 67.2589C136.274 67.5974 136.211 67.996 136.211 68.4545ZM142.177 72V64.9091H145.155C145.995 64.9091 146.658 65.0768 147.145 65.4123C147.634 65.7478 147.879 66.2156 147.879 66.8157C147.879 67.2127 147.74 67.5374 147.463 67.7898C147.189 68.0391 146.815 68.2068 146.341 68.293C146.714 68.3237 147.04 68.4176 147.32 68.5746C147.603 68.7315 147.825 68.9377 147.985 69.1932C148.145 69.4486 148.225 69.7425 148.225 70.0749C148.225 70.4658 148.122 70.8059 147.916 71.0952C147.712 71.3814 147.416 71.6045 147.025 71.7646C146.637 71.9215 146.166 72 145.612 72H142.177ZM143.742 70.6843H145.612C145.92 70.6843 146.161 70.612 146.337 70.4673C146.512 70.3196 146.6 70.1196 146.6 69.8672C146.6 69.5748 146.512 69.3455 146.337 69.1793C146.161 69.0101 145.92 68.9254 145.612 68.9254H143.742V70.6843ZM143.742 67.8452H145.187C145.415 67.8452 145.61 67.8129 145.774 67.7482C145.937 67.6805 146.061 67.5866 146.148 67.4666C146.234 67.3435 146.277 67.1973 146.277 67.0281C146.277 66.7849 146.177 66.5941 145.977 66.4556C145.78 66.3171 145.506 66.2479 145.155 66.2479H143.742V67.8452ZM150.215 67.2173H152.306C153.211 67.2173 153.911 67.4374 154.407 67.8775C154.902 68.3176 155.152 68.8946 155.155 69.6087C155.152 70.0734 155.038 70.4858 154.813 70.8459C154.592 71.206 154.268 71.4891 153.844 71.6953C153.422 71.8984 152.91 72 152.306 72H149.084V64.9091H150.695V70.6289H152.306C152.67 70.6289 152.968 70.5366 153.202 70.3519C153.436 70.1642 153.553 69.9241 153.553 69.6317C153.553 69.324 153.436 69.0732 153.202 68.8793C152.968 68.6854 152.67 68.5884 152.306 68.5884H150.215V67.2173ZM156.037 72V64.9091H157.708V72H156.037ZM160.522 69.7379L163.361 64.9091H165.078V72H163.463V67.1665L160.633 72H158.911V64.9091H160.522V69.7379ZM162.904 62.4716H164.155C164.155 63.0102 163.96 63.4472 163.569 63.7827C163.181 64.1151 162.655 64.2812 161.99 64.2812C161.331 64.2812 160.807 64.1151 160.416 63.7827C160.028 63.4472 159.836 63.0102 159.839 62.4716H161.081C161.081 62.6932 161.148 62.8917 161.284 63.0671C161.422 63.2395 161.658 63.3256 161.99 63.3256C162.316 63.3256 162.549 63.2395 162.687 63.0671C162.829 62.8948 162.901 62.6963 162.904 62.4716ZM173.06 70.0565L175.165 64.9091H176.513L173.646 72H172.478L169.676 64.9091H171.01L173.06 70.0565ZM170.59 64.9091V72H168.979V64.9091H170.59ZM175.599 72V64.9091H177.197V72H175.599ZM181.501 72.1385C180.79 72.1385 180.176 71.9908 179.659 71.6953C179.145 71.3968 178.749 70.9751 178.472 70.4304C178.195 69.8826 178.057 69.2378 178.057 68.4961C178.057 67.7667 178.195 67.1265 178.472 66.5756C178.752 66.0217 179.143 65.5908 179.645 65.283C180.147 64.9722 180.736 64.8168 181.413 64.8168C181.85 64.8168 182.262 64.8875 182.65 65.0291C183.041 65.1676 183.386 65.383 183.684 65.6754C183.986 65.9678 184.223 66.3402 184.395 66.7926C184.568 67.242 184.654 67.7775 184.654 68.3991V68.9116H178.842V67.7852H183.052C183.049 67.4651 182.98 67.1804 182.844 66.9311C182.709 66.6787 182.519 66.4802 182.276 66.3356C182.036 66.1909 181.756 66.1186 181.436 66.1186C181.094 66.1186 180.794 66.2017 180.536 66.3679C180.277 66.531 180.076 66.7464 179.931 67.0142C179.79 67.2789 179.717 67.5697 179.714 67.8867V68.87C179.714 69.2824 179.79 69.6364 179.94 69.9318C180.091 70.2242 180.302 70.4489 180.573 70.6058C180.844 70.7597 181.161 70.8366 181.524 70.8366C181.767 70.8366 181.987 70.8028 182.184 70.7351C182.381 70.6643 182.552 70.5612 182.696 70.4258C182.841 70.2904 182.95 70.1226 183.024 69.9226L184.585 70.098C184.486 70.5104 184.298 70.8705 184.021 71.1783C183.747 71.483 183.397 71.7199 182.969 71.8892C182.541 72.0554 182.052 72.1385 181.501 72.1385ZM188.641 72.1385C187.933 72.1385 187.325 71.9831 186.817 71.6722C186.312 71.3614 185.923 70.9321 185.649 70.3842C185.378 69.8333 185.243 69.1993 185.243 68.4822C185.243 67.7621 185.381 67.1265 185.658 66.5756C185.935 66.0217 186.326 65.5908 186.831 65.283C187.339 64.9722 187.939 64.8168 188.631 64.8168C189.207 64.8168 189.716 64.9229 190.159 65.1353C190.606 65.3446 190.961 65.6416 191.226 66.0263C191.491 66.4079 191.641 66.8542 191.678 67.3651H190.081C190.016 67.0234 189.862 66.7388 189.619 66.511C189.379 66.2802 189.058 66.1648 188.654 66.1648C188.313 66.1648 188.013 66.2571 187.754 66.4418C187.496 66.6233 187.294 66.8849 187.149 67.2266C187.008 67.5682 186.937 67.9775 186.937 68.4545C186.937 68.9377 187.008 69.3532 187.149 69.701C187.291 70.0457 187.49 70.3119 187.745 70.4996C188.004 70.6843 188.307 70.7766 188.654 70.7766C188.901 70.7766 189.121 70.7305 189.315 70.6381C189.512 70.5427 189.676 70.4058 189.809 70.2273C189.941 70.0488 190.032 69.8318 190.081 69.5763H191.678C191.638 70.078 191.491 70.5227 191.235 70.9105C190.98 71.2952 190.632 71.5968 190.192 71.8153C189.752 72.0308 189.235 72.1385 188.641 72.1385ZM196.722 72V66.2663H195.208C194.823 66.2663 194.528 66.3556 194.322 66.5341C194.115 66.7126 194.014 66.9342 194.017 67.1989C194.014 67.4635 194.111 67.6821 194.308 67.8544C194.505 68.0268 194.786 68.1129 195.153 68.1129H197.249V69.3317H195.153C194.586 69.3317 194.097 69.2424 193.685 69.0639C193.272 68.8854 192.955 68.633 192.734 68.3068C192.512 67.9806 192.401 67.599 192.401 67.1619C192.401 66.7064 192.514 66.311 192.738 65.9755C192.966 65.637 193.289 65.3754 193.708 65.1907C194.129 65.003 194.629 64.9091 195.208 64.9091H198.287V72H196.722ZM192.143 72L194.123 68.3622H195.771L193.786 72H192.143ZM205.438 64.9091V70.7536H206.522V74.2805H204.888V72H199.45V64.9091H201.061V70.6289H203.84V64.9091H205.438Z" fill="#9E9E9E"/>
<g clip-path="url(#clip0_46_135)">
<path d="M35 31.5C35 41.1646 27.1646 49 17.5 49C7.83536 49 0 41.1646 0 31.5C0 21.8354 7.83536 14 17.5 14C27.1646 14 35 21.8354 35 31.5ZM26.3334 33.4435L17.5 20.1927L8.66661 33.4435H13.4261V42.8066H21.5739V33.4435H26.3334Z" fill="#8983DD"/>
</g>
<path d="M75.2198 13.2727V46H69.2912V19.0415H69.0994L61.445 23.9315V18.4982L69.5788 13.2727H75.2198ZM93.1073 46.4474C90.9766 46.4474 89.0697 46.0479 87.3864 45.2489C85.7032 44.4393 84.3662 43.3313 83.3754 41.9251C82.3953 40.5188 81.8733 38.9102 81.8094 37.0991H87.5622C87.6688 38.4414 88.2494 39.5387 89.304 40.391C90.3587 41.2326 91.6265 41.6534 93.1073 41.6534C94.2685 41.6534 95.3019 41.3871 96.2075 40.8544C97.113 40.3217 97.8268 39.5813 98.3488 38.6332C98.8708 37.685 99.1265 36.6037 99.1158 35.3892C99.1265 34.1534 98.8655 33.0561 98.3328 32.0973C97.8001 31.1385 97.0704 30.3874 96.1435 29.8441C95.2167 29.2901 94.1514 29.0131 92.9475 29.0131C91.9674 29.0025 91.0033 29.1836 90.0551 29.5565C89.107 29.9293 88.3559 30.4194 87.8019 31.0266L82.4486 30.1477L84.1585 13.2727H103.143V18.2266H89.0643L88.1215 26.9038H88.3133C88.9205 26.19 89.7781 25.5987 90.8861 25.13C91.994 24.6506 93.2085 24.4109 94.5295 24.4109C96.5111 24.4109 98.2795 24.8796 99.8349 25.8171C101.39 26.744 102.615 28.0224 103.51 29.6523C104.405 31.2823 104.853 33.1467 104.853 35.2454C104.853 37.408 104.352 39.3363 103.351 41.0302C102.36 42.7134 100.98 44.0398 99.2117 45.0092C97.4539 45.968 95.4191 46.4474 93.1073 46.4474ZM120.503 46.6232C117.872 46.6232 115.613 45.9574 113.727 44.6257C111.852 43.2834 110.409 41.3498 109.397 38.8249C108.395 36.2894 107.895 33.2372 107.895 29.6683C107.905 26.0994 108.411 23.0632 109.413 20.5597C110.425 18.0455 111.868 16.1278 113.743 14.8068C115.629 13.4858 117.882 12.8253 120.503 12.8253C123.124 12.8253 125.377 13.4858 127.263 14.8068C129.148 16.1278 130.592 18.0455 131.593 20.5597C132.605 23.0739 133.111 26.1101 133.111 29.6683C133.111 33.2479 132.605 36.3054 131.593 38.8409C130.592 41.3658 129.148 43.294 127.263 44.6257C125.388 45.9574 123.134 46.6232 120.503 46.6232ZM120.503 41.6214C122.548 41.6214 124.162 40.6147 125.345 38.6012C126.538 36.5771 127.135 33.5994 127.135 29.6683C127.135 27.0689 126.863 24.8849 126.32 23.1165C125.776 21.348 125.009 20.0163 124.019 19.1214C123.028 18.2159 121.856 17.7631 120.503 17.7631C118.468 17.7631 116.86 18.7752 115.677 20.7994C114.494 22.8129 113.898 25.7692 113.887 29.6683C113.877 32.2784 114.138 34.473 114.67 36.2521C115.214 38.0312 115.981 39.3736 116.971 40.2791C117.962 41.174 119.139 41.6214 120.503 41.6214ZM154.119 39.8636V38.1378C154.119 36.87 154.385 35.7035 154.918 34.6381C155.461 33.5728 156.25 32.7152 157.283 32.0653C158.316 31.4155 159.568 31.0906 161.038 31.0906C162.551 31.0906 163.819 31.4155 164.842 32.0653C165.864 32.7045 166.637 33.5568 167.159 34.6222C167.691 35.6875 167.958 36.8594 167.958 38.1378V39.8636C167.958 41.1314 167.691 42.2979 167.159 43.3633C166.626 44.4286 165.843 45.2862 164.81 45.9361C163.787 46.5859 162.53 46.9109 161.038 46.9109C159.547 46.9109 158.284 46.5859 157.251 45.9361C156.218 45.2862 155.435 44.4286 154.902 43.3633C154.38 42.2979 154.119 41.1314 154.119 39.8636ZM158.29 38.1378V39.8636C158.29 40.7053 158.492 41.4776 158.897 42.1808C159.302 42.8839 160.016 43.2354 161.038 43.2354C162.072 43.2354 162.78 42.8892 163.164 42.1967C163.558 41.4936 163.755 40.7159 163.755 39.8636V38.1378C163.755 37.2855 163.568 36.5078 163.196 35.8047C162.823 35.0909 162.104 34.734 161.038 34.734C160.037 34.734 159.328 35.0909 158.913 35.8047C158.497 36.5078 158.29 37.2855 158.29 38.1378ZM137.484 21.1349V19.4091C137.484 18.1307 137.755 16.9588 138.299 15.8935C138.842 14.8281 139.63 13.9759 140.664 13.3366C141.697 12.6868 142.949 12.3619 144.419 12.3619C145.921 12.3619 147.184 12.6868 148.206 13.3366C149.24 13.9759 150.017 14.8281 150.539 15.8935C151.061 16.9588 151.322 18.1307 151.322 19.4091V21.1349C151.322 22.4134 151.056 23.5852 150.523 24.6506C150.001 25.7053 149.224 26.5522 148.19 27.1914C147.157 27.8306 145.9 28.1502 144.419 28.1502C142.917 28.1502 141.649 27.8306 140.616 27.1914C139.593 26.5522 138.815 25.6999 138.283 24.6346C137.75 23.5692 137.484 22.4027 137.484 21.1349ZM141.686 19.4091V21.1349C141.686 21.9872 141.883 22.7649 142.278 23.468C142.682 24.1605 143.396 24.5067 144.419 24.5067C145.442 24.5067 146.145 24.1605 146.528 23.468C146.923 22.7649 147.12 21.9872 147.12 21.1349V19.4091C147.12 18.5568 146.933 17.7791 146.56 17.076C146.187 16.3622 145.474 16.0053 144.419 16.0053C143.407 16.0053 142.698 16.3622 142.294 17.076C141.889 17.7898 141.686 18.5675 141.686 19.4091ZM139.305 46L161.805 13.2727H165.8L143.3 46H139.305Z" fill="#8983DD"/>
<path d="M185.414 8.96875H186.586C186.69 8.96875 186.742 9.02083 186.742 9.125V22.875C186.742 22.9792 186.69 23.0312 186.586 23.0312H185.414C185.31 23.0312 185.258 22.9792 185.258 22.875V9.125C185.258 9.02083 185.31 8.96875 185.414 8.96875Z" fill="#8983DD"/>
<path d="M179.75 15.2578H192.875C192.979 15.2578 193.031 15.3099 193.031 15.4141V16.5859C193.031 16.6901 192.979 16.7422 192.875 16.7422H179.125C179.021 16.7422 178.969 16.6901 178.969 16.5859V15.4141C178.969 15.3099 179.021 15.2578 179.125 15.2578H179.75Z" fill="#8983DD"/>
<defs>
<clipPath id="clip0_46_135">
<rect width="35" height="35" fill="white" transform="translate(0 14)"/>
</clipPath>
</defs>
</svg>
