<svg width="30" height="24" viewBox="0 0 30 24" fill="none" xmlns="http://www.w3.org/2000/svg">
<path fill-rule="evenodd" clip-rule="evenodd" d="M11 2C4.925 2 0 6.925 0 13C0 19.075 4.925 24 11 24C17.075 24 22 19.075 22 13C22 6.925 17.075 2 11 2ZM15.768 11.14C15.8558 11.0396 15.9226 10.9227 15.9646 10.7962C16.0065 10.6696 16.0227 10.5359 16.0123 10.403C16.0018 10.2701 15.9648 10.1406 15.9036 10.0221C15.8423 9.90369 15.758 9.79871 15.6555 9.71334C15.5531 9.62798 15.4346 9.56396 15.3071 9.52506C15.1796 9.48616 15.0455 9.47316 14.9129 9.48683C14.7802 9.50049 14.6517 9.54055 14.5347 9.60463C14.4178 9.66872 14.3149 9.75554 14.232 9.86L9.932 15.019L7.707 12.793C7.5184 12.6108 7.2658 12.51 7.0036 12.5123C6.7414 12.5146 6.49059 12.6198 6.30518 12.8052C6.11977 12.9906 6.0146 13.2414 6.01233 13.5036C6.01005 13.7658 6.11084 14.0184 6.293 14.207L9.293 17.207C9.39126 17.3052 9.50889 17.3818 9.63842 17.4321C9.76794 17.4823 9.9065 17.505 10.0453 17.4986C10.184 17.4923 10.32 17.4572 10.4444 17.3954C10.5688 17.3337 10.6791 17.2467 10.768 17.14L15.768 11.14Z" fill="#8983DD"/>
<path d="M23.5 0.5C25.0913 0.5 26.617 1.13259 27.7422 2.25781C28.8674 3.38303 29.5 4.9087 29.5 6.5L29.4922 6.79785C29.4185 8.2807 28.797 9.68738 27.7422 10.7422C26.6874 11.797 25.2807 12.4185 23.7979 12.4922L23.5 12.5C21.9087 12.5 20.383 11.8674 19.2578 10.7422C18.1326 9.61697 17.5 8.0913 17.5 6.5C17.5 4.9087 18.1326 3.38303 19.2578 2.25781C20.383 1.13259 21.9087 0.5 23.5 0.5ZM23.4287 3.57715C23.4061 3.58648 23.3848 3.59954 23.3672 3.61719C23.332 3.65235 23.3125 3.70027 23.3125 3.75C23.3125 3.79973 23.332 3.84765 23.3672 3.88281C23.4024 3.91798 23.4503 3.9375 23.5 3.9375C23.5497 3.9375 23.5976 3.91798 23.6328 3.88281C23.668 3.84765 23.6875 3.79973 23.6875 3.75C23.6875 3.70027 23.668 3.65235 23.6328 3.61719C23.5976 3.58202 23.5497 3.5625 23.5 3.5625L23.4287 3.57715ZM23.3125 9.25C23.3125 9.29973 23.332 9.34765 23.3672 9.38281C23.4024 9.41798 23.4503 9.4375 23.5 9.4375H24.1875C24.2372 9.4375 24.2851 9.41798 24.3203 9.38281C24.3555 9.34765 24.375 9.29973 24.375 9.25C24.375 9.20027 24.3555 9.15235 24.3203 9.11719C24.2851 9.08202 24.2372 9.0625 24.1875 9.0625H23.6875V6.5C23.6875 6.45027 23.668 6.40235 23.6328 6.36719C23.5976 6.33202 23.5497 6.3125 23.5 6.3125H22.8125C22.7628 6.3125 22.7149 6.33202 22.6797 6.36719C22.6445 6.40235 22.625 6.45027 22.625 6.5L22.6396 6.57129C22.649 6.59393 22.662 6.61516 22.6797 6.63281C22.7149 6.66798 22.7628 6.6875 22.8125 6.6875H23.3125V9.25Z" fill="#E3E3E3" stroke="black"/>
</svg>
