<svg width="1920" height="1129" viewBox="0 0 1920 1129" fill="none" xmlns="http://www.w3.org/2000/svg">
<mask id="mask0_46_22" style="mask-type:luminance" maskUnits="userSpaceOnUse" x="0" y="0" width="1920" height="1133">
<path d="M1920 0H0V1133H1920V0Z" fill="white"/>
</mask>
<g mask="url(#mask0_46_22)">
<path d="M-365.6 613.092C-270.08 545.82 -167.68 484.921 -55.8399 458.437C56.0001 431.812 179.04 443.142 268.96 510.555C376.16 590.857 426.72 740.554 548.64 795.93C627.68 831.761 720 820.006 807.84 813.916C895.68 807.826 991.68 810.942 1056.48 868.725C1172.96 972.111 1131.2 1196.02 1257.44 1287.23C1340.64 1347.28 1456.48 1319.8 1559.84 1326.88C1690.56 1335.8 1813.28 1407.61 1884.96 1517.08C1956.64 1626.56 1976 1771.58 1936.16 1901.31" stroke="#20272B" stroke-miterlimit="10"/>
<path d="M-353.92 596.384C-258.72 530.103 -156.48 470.904 -45.1201 445.411C22.0799 429.974 93.2799 428.133 158.88 443.712C201.76 453.909 242.08 471.612 277.6 497.671C384.8 576.698 436.96 723.28 556.16 780.496C598.56 800.748 644.16 808.113 691.68 809.529C731.84 810.804 773.12 807.83 813.76 805.564C870.72 802.448 931.36 802.306 984.8 817.035C1014.24 825.249 1041.6 837.854 1065.28 857.115C1111.52 894.646 1135.04 949.03 1154.08 1007.38C1181.6 1091.22 1200.32 1182.99 1260.64 1242.62C1267.04 1248.99 1274.08 1254.94 1281.6 1260.6C1364.32 1321.93 1475.04 1300.4 1572.32 1311.45C1667.84 1322.35 1757.28 1369.66 1825.28 1442.59C1844.8 1463.69 1862.72 1486.92 1878.24 1511.99C1906.24 1557.17 1926.88 1607.73 1939.52 1660.27C1958.4 1738.45 1960 1820.73 1941.76 1896.36" stroke="#20272B" stroke-miterlimit="10"/>
<path d="M-342.079 579.67C-247.199 514.523 -144.959 456.881 -34.2393 432.38C32.6407 417.509 103.201 416.093 168.481 431.672C211.041 441.869 251.201 459.289 286.561 485.065C393.601 562.958 447.521 706.283 564.001 765.199C605.921 786.301 650.401 795.507 697.601 798.339C737.601 800.888 779.041 798.906 820.001 797.206C877.441 794.798 938.561 794.657 992.641 808.394C1022.4 815.901 1050.24 827.797 1074.4 845.783C1121.76 881.048 1147.68 932.033 1169.12 987.408C1200.32 1067 1223.84 1155.66 1284.96 1215.99C1291.52 1222.51 1298.4 1228.6 1305.92 1234.26C1388 1296.86 1493.6 1281.14 1585.12 1296.29C1674.56 1311.16 1757.28 1360.87 1821.12 1435.93C1839.68 1457.6 1856.64 1481.54 1871.68 1507.03C1898.72 1553.2 1919.52 1604.61 1933.44 1657.44C1954.24 1736.18 1960 1817.9 1947.36 1891.54" stroke="#20272B" stroke-miterlimit="10"/>
<path d="M-330.4 562.96C-235.84 498.804 -133.76 442.862 -23.5199 419.353C42.8801 405.19 112.96 404.057 177.76 419.636C220 429.833 260 447.111 295.2 472.32C402.08 548.939 457.76 689.148 571.52 749.764C612.96 771.857 656.48 782.762 703.36 787.153C743.04 790.977 784.64 789.985 825.92 788.852C883.68 787.294 945.44 787.011 1000.16 799.616C1030.4 806.555 1058.4 817.602 1083.2 834.314C1131.84 867.171 1159.84 914.898 1183.84 967.3C1218.72 1042.64 1247.04 1128.04 1309.12 1189.23C1315.68 1195.74 1322.72 1201.97 1330.08 1207.78C1411.68 1271.65 1512.16 1261.88 1597.6 1281C1681.12 1299.84 1756.8 1352.09 1816.8 1429.14C1834.24 1451.52 1850.4 1476.02 1864.96 1502.08C1891.2 1549.24 1912.16 1601.5 1927.36 1654.61C1950.08 1733.92 1960.16 1815.21 1952.96 1886.73" stroke="#20272B" stroke-miterlimit="10"/>
<path d="M-318.56 546.388C-224.32 483.365 -122.4 428.839 -12.6402 406.604C53.4398 393.149 122.88 392.441 187.2 407.878C229.12 418.075 268.96 435.07 304 459.996C410.88 535.482 468.16 672.434 579.2 734.749C620.16 757.692 662.72 770.297 709.12 776.245C748.64 781.344 790.4 781.344 832 780.777C890.24 779.927 952.64 779.644 1007.84 791.257C1038.4 797.63 1066.72 807.827 1092.16 823.265C1142.08 853.856 1172.16 898.184 1198.88 947.611C1237.28 1018.85 1270.56 1100.85 1333.44 1162.88C1340.16 1169.4 1347.04 1175.77 1354.56 1181.72C1435.68 1246.86 1531.2 1243.04 1610.4 1266.13C1688.16 1288.79 1756.64 1343.74 1812.8 1422.9C1829.12 1445.85 1844.32 1471.06 1858.4 1497.68C1883.68 1545.98 1904.96 1598.94 1921.28 1652.34C1945.92 1732.21 1960.32 1812.94 1958.56 1882.48" stroke="#20272B" stroke-miterlimit="10"/>
<path d="M-306.88 529.679C-212.8 467.648 -111.2 414.821 -1.91983 393.578C63.6802 380.69 132.64 380.407 196.48 395.844C238.08 405.899 277.6 422.752 312.64 447.254C419.36 521.465 478.4 655.442 586.72 719.315C627.2 743.108 668.64 757.554 714.88 765.06C754.24 771.433 796.16 772.425 838.08 772.566C896.64 772.566 959.68 772.141 1015.52 782.622C1046.4 788.428 1075.2 797.634 1101.12 811.938C1152.32 840.121 1184.64 881.193 1213.76 927.646C1255.84 994.634 1293.92 1073.52 1357.76 1136.4C1364.48 1143.06 1371.52 1149.43 1378.88 1155.52C1459.52 1221.8 1549.92 1223.93 1623.2 1251.12C1695.04 1277.88 1756.48 1335.24 1808.64 1416.39C1823.84 1440.04 1838.24 1465.82 1851.84 1492.87C1876.32 1542.16 1897.76 1595.83 1915.36 1649.65C1941.92 1730.09 1960.48 1810.25 1964.48 1877.81" stroke="#20272B" stroke-miterlimit="10"/>
<path d="M-295.2 512.967C-201.44 452.068 -99.8399 400.8 8.80008 380.547C74.0801 368.367 142.4 368.367 205.76 383.805C247.2 393.86 286.4 410.572 321.28 434.506C427.84 507.585 488.64 638.446 594.4 703.877C634.4 728.661 674.88 744.807 720.64 753.871C759.68 761.518 801.76 763.501 844.16 764.209C903.2 764.917 966.72 764.493 1023.2 773.84C1054.4 778.938 1083.68 787.436 1110.08 800.465C1162.56 826.383 1196.96 864.055 1228.64 907.534C1274.24 970.274 1317.28 1045.9 1381.92 1109.63C1388.8 1116.29 1395.84 1122.8 1403.04 1129.04C1483.2 1196.59 1568.64 1204.66 1635.68 1235.82C1701.76 1266.55 1756 1326.46 1804.32 1409.59C1818.4 1433.95 1832 1460.3 1845.12 1487.91C1868.64 1538.33 1890.24 1592.72 1909.12 1646.82C1937.6 1727.83 1960.48 1807.42 1969.92 1872.99" stroke="#20272B" stroke-miterlimit="10"/>
<path d="M-283.36 496.252C-189.92 436.486 -88.4801 386.776 19.6799 367.515C84.4799 355.902 152.32 356.326 215.2 371.764C256.32 381.819 295.36 398.247 330.08 421.899C436.64 493.703 498.88 621.59 602.08 688.72C641.6 714.496 680.96 732.341 726.56 742.821C765.44 751.743 807.68 754.859 850.24 755.992C909.6 757.55 973.76 757.125 1030.88 765.339C1062.4 769.871 1092 777.519 1119.04 789.274C1172.8 812.784 1209.44 847.199 1243.52 887.845C1292.8 946.478 1340.64 1018.85 1406.08 1083.29C1412.96 1090.09 1420 1096.6 1427.36 1102.97C1507.04 1171.8 1587.52 1185.97 1648.48 1220.95C1708.8 1255.79 1755.68 1318.1 1800.16 1403.22C1813.12 1428.14 1826.08 1455.05 1838.56 1483.24C1861.44 1534.65 1883.04 1589.88 1903.04 1644.26C1933.44 1725.84 1960.48 1804.87 1975.52 1868.46" stroke="#20272B" stroke-miterlimit="10"/>
<path d="M-271.68 479.546C-178.56 420.772 -77.2798 372.619 30.4002 354.633C94.7202 343.728 162.08 344.578 224.64 359.873C265.44 369.928 304.16 386.215 338.88 409.3C445.28 479.829 509.28 604.884 609.76 673.431C648.8 700.056 687.2 719.742 732.32 731.78C771.04 741.977 813.28 746.084 856.32 747.784C916.16 750.05 980.8 749.625 1038.56 756.706C1070.4 760.672 1100.48 767.328 1128 777.95C1183.04 799.194 1221.76 830.21 1258.4 867.882C1311.36 922.266 1364 991.379 1430.4 1056.67C1437.28 1063.47 1444.48 1070.12 1451.68 1076.64C1530.88 1146.74 1606.4 1166.85 1661.12 1205.8C1715.84 1244.75 1755.36 1309.47 1796 1396.71C1808 1422.34 1820 1449.82 1832 1478.57C1853.92 1530.97 1875.84 1587.05 1897.12 1641.72C1929.44 1723.86 1960.8 1802.32 1981.28 1863.93" stroke="#20272B" stroke-miterlimit="10"/>
<path d="M-260 462.828C-167.2 405.186 -66.08 358.592 41.12 341.597C105.12 331.258 171.84 332.533 233.92 347.828C274.4 357.884 312.96 373.887 347.52 396.547C453.92 465.944 519.52 588.024 617.28 657.987C655.84 685.604 693.12 706.989 738.08 720.444C776.48 732.057 819.04 737.014 862.4 739.28C922.56 742.396 988 741.829 1046.24 747.777C1078.4 751.035 1108.8 756.983 1136.8 766.33C1193.12 785.166 1234.08 812.925 1273.28 847.623C1329.92 897.758 1387.36 963.614 1454.56 1029.75C1461.6 1036.69 1468.64 1043.35 1475.84 1050.01C1554.4 1121.38 1625.12 1147.73 1673.6 1190.36C1722.56 1233.41 1754.88 1300.54 1791.52 1389.76C1802.4 1416.11 1813.6 1444.15 1825.12 1473.32C1846.24 1526.71 1868.16 1583.65 1890.72 1638.74C1924.96 1721.45 1960.48 1799.34 1986.56 1858.97" stroke="#20272B" stroke-miterlimit="10"/>
<path d="M-248.16 446.262C-155.68 389.612 -54.5598 344.717 52.0002 328.714C115.52 319.083 181.6 320.641 243.36 335.936C283.52 345.992 321.92 361.854 356.48 384.089C462.72 452.211 529.92 571.459 625.12 642.838C663.2 671.446 699.52 694.531 744 709.543C782.24 722.431 824.8 728.379 868.48 731.353C929.12 735.177 995.04 734.611 1053.92 739.568C1086.56 742.259 1117.28 747.215 1145.76 755.43C1203.52 771.858 1246.56 796.359 1288.16 828.083C1348.48 874.111 1410.72 936.71 1478.88 1003.56C1485.92 1010.5 1493.12 1017.29 1500.16 1024.09C1578.24 1096.75 1644 1129.32 1686.4 1175.63C1729.6 1223.08 1754.72 1292.33 1787.52 1383.54C1797.28 1410.45 1807.68 1439.2 1818.56 1468.94C1838.72 1523.46 1860.96 1581.1 1884.8 1636.48C1920.96 1719.75 1960.8 1797.08 1992.48 1854.72" stroke="#20272B" stroke-miterlimit="10"/>
<path d="M-236.479 429.55C-144.319 374.033 -43.3594 330.555 62.7206 315.684C125.921 306.62 191.361 308.603 252.641 323.898C292.641 333.954 330.721 349.532 365.121 371.343C471.201 438.331 540.001 554.605 632.641 627.401C670.241 657 705.441 681.926 749.601 698.355C787.681 712.517 830.401 719.457 874.401 722.997C935.361 727.671 1001.92 726.963 1061.44 730.787C1094.4 732.911 1125.6 737.018 1154.56 743.958C1213.6 757.979 1258.88 779.222 1302.88 807.972C1366.88 849.752 1433.92 909.093 1502.88 976.789C1510.08 983.871 1517.12 990.81 1524.32 997.608C1601.92 1071.54 1662.72 1110.34 1698.88 1160.34C1736.32 1212.03 1754.08 1283.69 1783.04 1376.74C1791.68 1404.36 1801.28 1433.67 1811.68 1463.98C1831.04 1519.5 1853.44 1577.99 1878.4 1633.65C1916.32 1717.49 1960.48 1794.25 1997.76 1849.91" stroke="#20272B" stroke-miterlimit="10"/>
<path d="M-224.64 412.834C-132.64 358.308 -32.0001 316.529 73.5999 302.791C136.32 294.435 201.28 296.701 262.08 311.997C301.76 321.911 339.52 337.489 373.92 358.875C480 424.589 550.24 538.03 640.32 612.384C677.44 642.975 711.68 669.6 755.52 687.445C793.28 702.882 836.16 710.813 880.64 714.92C942.08 720.302 1009.12 719.594 1069.28 722.426C1102.56 723.984 1134.24 727.1 1163.68 732.906C1224 744.52 1271.36 762.506 1317.92 788.282C1385.6 825.812 1457.44 882.038 1527.36 950.442C1534.56 957.524 1541.76 964.605 1548.8 971.545C1625.92 1046.75 1681.6 1091.93 1711.68 1145.46C1743.2 1201.54 1753.92 1275.33 1779.04 1370.5C1786.56 1398.69 1795.2 1428.71 1805.28 1459.44C1823.68 1516.09 1846.4 1575.15 1872.48 1631.23C1912.32 1715.64 1960.8 1791.84 2003.52 1845.51" stroke="#20272B" stroke-miterlimit="10"/>
<path d="M-212.96 396.127C-121.28 342.734 -20.8003 302.513 84.3197 289.767C146.72 281.977 211.04 284.81 271.36 299.964C310.72 309.877 348.32 325.173 382.56 346.133C488.48 410.714 560.32 521.323 647.84 596.951C684.48 628.534 717.76 656.859 761.12 676.261C798.72 692.973 841.76 702.037 886.56 706.569C948.48 712.8 1016 711.951 1076.8 713.65C1110.4 714.5 1142.4 716.908 1172.48 721.44C1234.24 730.645 1283.68 745.374 1332.64 768.317C1404 801.741 1480.64 854.567 1551.36 923.822C1558.72 930.903 1565.76 938.126 1572.8 945.207C1649.44 1021.54 1700 1073.09 1724.16 1130.31C1749.76 1190.78 1753.28 1266.7 1774.72 1363.85C1781.12 1392.74 1788.96 1423.33 1798.56 1454.63C1816.16 1512.27 1838.88 1572.18 1866.4 1628.55C1908.16 1713.52 1960.8 1789.15 2009.12 1840.84" stroke="#20272B" stroke-miterlimit="10"/>
<path d="M-201.279 379.413C-109.919 327.011 -9.4394 288.489 95.0406 276.734C156.961 269.653 220.801 272.769 280.801 287.923C319.841 297.837 357.281 312.849 391.361 333.384C497.281 396.691 570.561 504.609 655.521 581.511C691.521 614.085 723.841 644.11 767.041 664.929C804.481 683.057 847.521 692.97 892.641 698.069C954.881 705.008 1023.04 704.159 1084.48 704.725C1118.4 705.008 1150.88 706.425 1181.44 709.824C1244.48 716.622 1296.16 728.093 1347.68 748.062C1422.72 777.237 1504.16 826.806 1575.84 896.91C1583.2 904.133 1590.4 911.356 1597.44 918.579C1673.6 996.189 1718.88 1054.11 1737.12 1114.87C1756.64 1179.88 1753.12 1257.77 1770.72 1356.91C1776 1386.51 1783.04 1417.67 1792.16 1449.39C1808.8 1508.02 1831.84 1568.78 1860.48 1625.43C1904.16 1710.97 1961.12 1786.03 2014.88 1835.74" stroke="#20272B" stroke-miterlimit="10"/>
<path d="M-189.44 362.699C-98.3997 311.431 1.92029 274.325 105.92 263.845C167.52 257.472 230.72 260.871 290.24 276.025C328.96 285.939 366.08 300.809 400.16 320.92C505.92 383.093 580.64 488.179 663.2 566.356C698.72 600.063 730.08 631.645 772.8 654.022C809.92 673.425 853.28 684.33 898.72 689.995C961.44 697.784 1030.24 696.793 1092.16 696.368C1126.4 696.085 1159.36 696.51 1190.4 698.634C1254.88 703.024 1308.64 711.097 1362.56 728.234C1441.28 753.16 1527.52 799.613 1600 870.425C1607.36 877.648 1614.56 885.013 1621.6 892.377C1697.28 971.262 1737.28 1035.56 1749.76 1099.86C1763.2 1169.25 1752.8 1249.41 1766.56 1350.39C1770.72 1380.7 1776.96 1412.42 1785.6 1444.71C1801.28 1504.48 1824.64 1565.95 1854.56 1622.88C1900.16 1708.99 1961.44 1783.48 2020.8 1831.21" stroke="#20272B" stroke-miterlimit="10"/>
<path d="M-177.76 346.131C-87.0403 295.996 13.1197 260.448 116.64 250.959C177.76 245.152 240.48 248.976 299.52 264.13C338.08 274.044 374.88 288.631 408.8 308.317C514.4 369.216 590.72 471.611 670.72 551.062C705.6 585.761 736 619.042 778.56 642.835C815.52 663.513 858.88 675.409 904.8 681.782C967.84 690.28 1037.28 689.43 1099.84 687.731C1134.4 686.881 1167.84 686.456 1199.36 687.306C1265.12 689.288 1320.96 694.104 1377.44 708.266C1460 728.943 1550.88 772.139 1624.16 843.801C1631.68 851.166 1638.88 858.53 1645.76 866.036C1720.8 946.196 1755.52 1016.73 1762.24 1084.71C1769.6 1158.35 1752.16 1240.78 1762.08 1343.88C1765.12 1374.75 1770.56 1407.19 1778.56 1440.04C1793.28 1500.8 1816.8 1563.11 1848 1620.33C1895.52 1707.01 1960.96 1780.93 2025.92 1826.82" stroke="#20272B" stroke-miterlimit="10"/>
<path d="M-166.08 329.421C-75.6799 280.277 24.48 246.429 127.36 237.932C188.16 232.833 250.24 237.082 308.8 252.094C347.04 262.008 383.68 276.454 417.44 295.715C523.04 355.339 600.64 455.184 678.24 535.911C712.64 571.6 742.08 606.723 784.16 631.932C820.96 653.884 864.48 666.772 910.56 673.712C974.08 683.059 1044 682.068 1107.2 679.377C1142.24 677.819 1175.84 677.111 1208 676.261C1275.04 674.42 1333.12 677.394 1392 688.582C1478.24 705.011 1573.92 744.949 1648.16 817.461C1655.68 824.826 1662.88 832.332 1669.92 839.979C1744.48 921.414 1773.76 998.316 1774.72 1069.84C1775.84 1147.87 1751.52 1232.42 1757.76 1337.51C1759.68 1369.09 1764.32 1402.09 1771.84 1435.37C1785.76 1497.26 1809.44 1560.28 1841.76 1617.78C1891.2 1705.03 1960.96 1778.39 2031.36 1822.29" stroke="#20272B" stroke-miterlimit="10"/>
<path d="M-154.24 312.707C-64.1597 264.696 35.8402 232.406 138.4 224.9C198.72 220.368 260.32 225.041 318.4 240.053C356.32 249.826 392.8 264.13 426.4 282.966C531.84 341.457 610.88 438.47 686.08 520.471C719.84 557.293 748.32 593.974 790.24 620.742C826.72 644.11 870.4 657.847 916.96 665.353C980.8 675.409 1051.36 674.417 1115.2 670.593C1150.56 668.469 1184.64 666.203 1217.28 664.787C1285.76 661.813 1345.92 660.255 1407.36 668.469C1497.28 680.649 1597.76 717.471 1672.8 790.692C1680.48 798.198 1687.68 805.704 1694.56 813.493C1768.64 896.202 1792.48 979.194 1787.84 1054.54C1782.72 1136.82 1751.52 1223.64 1753.92 1330.71C1754.72 1362.86 1758.56 1396.42 1765.6 1430.41C1778.56 1493.29 1802.56 1557.17 1836.16 1614.95C1887.52 1702.76 1961.44 1775.69 2037.44 1817.47" stroke="#20272B" stroke-miterlimit="10"/>
<path d="M-142.56 295.996C-52.6399 248.976 47.0401 218.244 149.12 212.012C209.12 208.188 270.08 213.145 327.68 228.157C365.28 237.929 401.44 252.092 435.04 270.362C540.32 327.578 620.64 421.9 693.6 505.176C726.72 542.99 754.24 581.37 795.84 609.553C832.16 634.196 876 649.067 922.88 656.998C987.2 667.903 1058.24 666.77 1122.72 661.813C1158.4 659.122 1192.96 655.865 1226.08 653.316C1295.84 647.934 1358.24 642.977 1422.08 648.359C1515.68 656.29 1620.96 689.855 1696.96 763.925C1704.64 771.431 1712 779.079 1718.72 787.01C1792.32 870.993 1810.72 960.217 1800.32 1039.24C1788.96 1125.78 1750.88 1214.86 1749.6 1324.05C1749.12 1356.91 1752.32 1391.04 1758.88 1425.46C1770.88 1489.33 1795.2 1553.91 1829.92 1612.12C1883.2 1700.49 1961.44 1772.86 2042.88 1812.66" stroke="#20272B" stroke-miterlimit="10"/>
<path d="M-130.721 279.279C-41.1206 233.392 58.3994 204.218 159.999 198.978C219.519 195.72 279.999 201.102 337.279 216.114C374.559 225.886 410.559 239.766 443.999 257.752C549.119 313.835 630.719 405.467 701.279 489.875C733.759 528.822 760.48 568.76 801.76 598.502C837.76 624.419 881.759 640.281 929.119 648.779C993.759 660.392 1065.6 659.259 1130.56 653.311C1166.56 650.053 1201.44 645.946 1235.2 642.122C1306.24 634.191 1370.72 626.119 1437.12 628.668C1534.4 632.35 1644.48 662.799 1721.28 737.577C1729.12 745.225 1736.32 753.015 1743.2 760.946C1816.32 846.204 1829.28 941.659 1813.28 1024.37C1795.68 1115.15 1750.72 1206.64 1745.76 1317.67C1744.16 1351.24 1746.4 1385.94 1752.64 1420.92C1763.84 1485.92 1788.16 1551.21 1824.32 1609.7C1879.52 1698.64 1961.92 1770.45 2049.12 1808.26" stroke="#20272B" stroke-miterlimit="10"/>
<path d="M-119.04 262.572C-29.7598 217.677 69.7602 190.202 170.72 185.953C229.92 183.404 289.76 189.069 346.56 204.081C383.68 213.853 419.36 227.449 452.8 245.01C557.92 299.819 640.8 388.901 709.12 474.443C740.96 514.381 766.72 556.019 807.68 587.177C843.52 614.51 887.68 631.222 935.2 640.286C1000.32 652.749 1072.64 651.474 1138.24 644.393C1174.56 640.427 1209.92 635.471 1244.16 630.514C1316.64 620.175 1383.2 608.704 1452 608.42C1552.96 607.712 1667.84 635.046 1745.6 710.674C1753.44 718.321 1760.8 726.252 1767.52 734.325C1840.16 820.858 1847.68 922.403 1825.92 1008.94C1801.92 1103.97 1750.24 1197.72 1741.44 1310.74C1738.72 1344.87 1740.16 1380.28 1745.92 1415.82C1756.16 1481.82 1780.8 1547.96 1818.08 1606.73C1875.2 1696.24 1961.92 1767.48 2054.56 1803.31" stroke="#20272B" stroke-miterlimit="10"/>
<path d="M-107.36 246C-18.4004 202.238 80.9597 176.179 181.44 173.064C240.16 171.081 299.36 177.312 355.84 192.183C392.64 201.955 428 215.409 461.44 232.404C566.56 286.08 650.56 372.33 716.64 459.146C747.84 500.217 772.64 543.555 813.44 576.128C848.96 604.737 893.28 622.44 941.28 632.212C1006.72 645.383 1079.68 644.108 1145.92 635.894C1182.56 631.362 1218.4 625.414 1253.12 619.324C1326.88 606.436 1395.68 591.849 1466.88 588.591C1571.52 583.635 1691.2 607.711 1769.76 684.188C1777.76 691.836 1784.96 699.909 1791.68 708.123C1863.84 795.789 1865.92 903.565 1838.4 993.922C1808.16 1093.06 1749.6 1189.22 1737.12 1304.22C1733.28 1339.06 1733.92 1375.04 1739.04 1411.01C1748.48 1478.14 1773.28 1544.98 1811.68 1604.04C1870.72 1694.12 1961.6 1764.79 2059.84 1798.64" stroke="#20272B" stroke-miterlimit="10"/>
<path d="M-95.5201 229.289C-6.88014 186.518 92.3199 162.159 192.32 160.176C250.72 158.901 309.28 165.416 365.28 180.287C401.76 190.059 436.96 203.23 470.24 219.942C575.2 272.343 660.48 356.043 724.32 444.134C754.88 486.338 778.88 531.233 819.2 565.365C854.56 595.389 899.04 613.942 947.36 624.281C1013.28 638.302 1086.72 636.886 1153.6 627.68C1190.56 622.581 1226.72 615.642 1262.08 608.419C1337.12 593.124 1408.16 575.137 1481.92 569.047C1590.24 559.842 1714.72 580.802 1794.08 657.988C1802.08 665.777 1809.44 673.85 1816 682.206C1887.52 771.146 1884.32 885.013 1851.2 979.193C1814.72 1082.44 1749.12 1181.01 1732.96 1298.13C1728 1333.68 1727.84 1370.22 1732.48 1406.76C1740.96 1474.88 1765.92 1542.58 1805.76 1601.92C1866.72 1692.56 1961.92 1762.66 2065.6 1794.53" stroke="#20272B" stroke-miterlimit="10"/>
<path d="M-83.8398 212.579C4.48016 170.941 103.52 148.139 203.04 147.148C260.96 146.581 319.04 153.379 374.56 168.25C410.72 177.88 445.76 191.052 478.88 207.197C583.68 258.323 670.24 339.475 731.84 428.698C761.76 471.894 784.8 518.489 824.96 554.036C860 585.336 904.64 604.88 953.28 615.785C1019.52 630.514 1093.6 629.098 1161.12 618.759C1198.56 612.952 1235.04 605.163 1270.88 596.807C1347.2 578.962 1420.32 557.86 1496.64 548.796C1608.64 535.342 1737.92 553.045 1818.24 631.081C1826.24 638.87 1833.6 647.084 1840.32 655.582C1911.36 745.797 1902.88 865.753 1863.84 963.758C1821.12 1071.25 1748.64 1172.09 1728.8 1291.19C1722.72 1327.31 1721.76 1364.56 1725.92 1401.52C1733.6 1470.63 1758.72 1539.18 1799.68 1598.8C1862.56 1690.01 1961.92 1759.55 2071.2 1789.43" stroke="#20272B" stroke-miterlimit="10"/>
<path d="M-72.1604 195.867C15.8396 155.22 114.88 134.118 213.76 134.118C271.36 134.118 328.8 141.341 383.84 156.212C419.68 165.842 454.4 178.73 487.52 194.592C592.32 244.586 680 322.904 739.52 413.403C768.64 457.731 791.04 505.884 830.72 542.99C865.6 575.563 910.4 596.241 959.36 607.571C1026.08 623.149 1100.64 621.733 1168.8 610.262C1206.56 603.888 1243.36 595.108 1279.84 585.619C1357.44 565.225 1432.8 541.007 1511.52 528.969C1627.2 511.266 1761.28 525.853 1842.4 604.597C1850.56 612.528 1857.92 620.742 1864.48 629.381C1935.04 720.871 1920.96 846.775 1876.48 948.745C1827.36 1060.2 1748.32 1163.59 1724.48 1284.68C1717.28 1321.5 1715.52 1359.32 1719.2 1396.85C1725.92 1467.09 1751.36 1536.35 1793.6 1596.25C1858.4 1688.03 1962.08 1757 2076.8 1784.9" stroke="#20272B" stroke-miterlimit="10"/>
<path d="M-60.3202 179.155C78.3998 116.698 244.64 103.952 393.44 144.315C542.24 184.678 671.84 277.584 747.2 398.107C775.68 443.569 797.12 493.279 836.64 531.801C918.4 611.677 1057.28 623.291 1176.64 601.48C1296 579.67 1407.2 530.81 1526.56 508.858C1645.92 486.906 1784.8 498.236 1866.88 577.829C1962.4 670.593 1944.48 817.742 1889.28 933.45C1834.08 1049.16 1748 1154.81 1720.48 1277.88C1696.48 1385.37 1720.96 1500.94 1787.68 1593.28C1854.4 1685.62 1962.24 1754.02 2082.72 1779.94" stroke="#20272B" stroke-miterlimit="10"/>
<path d="M-23.3602 171.788C114.4 111.315 278.72 99.8429 425.44 140.914C572.16 181.985 700 274.325 772.96 394.281C801.44 441.018 821.28 492.711 859.36 532.649C936.8 613.517 1071.2 627.254 1186.72 609.41C1302.24 591.565 1411.36 547.236 1529.6 527.975C1649.28 508.431 1788.8 517.495 1873.28 595.106C1970.88 685.179 1958.24 831.478 1905.44 947.893C1852.64 1064.31 1764.16 1170.53 1733.44 1290.48C1706.88 1394.15 1729.28 1505.33 1791.04 1594.98C1852.96 1684.49 1954.56 1751.9 2070.56 1778.95" stroke="#20272B" stroke-miterlimit="10"/>
<path d="M13.6003 164.427C150.24 105.794 312.8 95.8806 457.44 137.518C602.08 179.156 728.16 271.212 798.88 390.461C827.36 438.613 845.44 492.006 882.4 533.36C955.52 615.078 1085.28 630.94 1197.12 617.202C1308.96 603.465 1415.84 563.526 1532.8 546.956C1652.8 529.961 1793.44 536.618 1879.84 612.104C1979.68 699.345 1972.16 844.935 1921.6 961.917C1871.04 1078.9 1780.48 1185.83 1746.4 1302.67C1717.28 1402.51 1737.44 1509.44 1794.56 1596.11C1851.68 1682.79 1947.04 1749.35 2058.56 1777.39" stroke="#20272B" stroke-miterlimit="10"/>
<path d="M50.5603 157.061C186.24 100.27 347.04 91.9139 489.44 134.118C631.84 176.322 756.16 268.095 824.64 386.636C853.12 436.063 869.44 491.296 905.28 534.209C974.08 616.635 1099.2 634.904 1207.36 625.132C1315.52 615.36 1420.16 580.095 1536 566.074C1656.48 551.487 1797.76 555.736 1886.56 629.239C1988.64 713.648 1986.08 858.388 1937.92 976.22C1889.76 1094.05 1796.8 1201.4 1759.52 1315.13C1728 1411.01 1745.92 1513.83 1798.24 1597.53C1850.56 1681.23 1939.68 1746.94 2046.72 1776.12" stroke="#20272B" stroke-miterlimit="10"/>
<path d="M87.5203 149.694C222.24 94.885 381.12 87.8037 521.6 130.716C662.08 173.628 784.32 264.977 850.56 382.809C879.04 433.51 893.76 490.585 928.32 535.055C992.96 618.048 1113.44 638.867 1217.76 633.06C1322.08 627.253 1424.8 596.521 1539.36 585.191C1660.32 573.153 1802.4 574.994 1893.28 646.373C1997.44 728.09 2000.16 871.981 1954.4 990.38C1908.48 1108.78 1813.6 1216.55 1772.8 1327.45C1739.04 1419.36 1754.4 1517.93 1801.92 1598.8C1849.44 1679.67 1932.32 1744.39 2035.04 1774.56" stroke="#20272B" stroke-miterlimit="10"/>
<path d="M124.64 142.33C258.4 89.3624 415.36 83.8391 553.76 127.318C692.16 170.797 812.48 261.862 876.64 378.986C905.12 431.104 918.08 489.736 951.36 535.764C1011.84 619.323 1127.52 642.55 1228.16 640.85C1328.96 639.151 1429.28 612.95 1542.56 604.169C1664 594.68 1806.72 594.114 1899.84 663.369C2006.08 742.254 2014.08 885.437 1970.56 1004.54C1927.04 1123.65 1829.92 1231.85 1785.76 1339.63C1749.76 1427.58 1762.72 1522.04 1805.44 1600.08C1848.16 1677.97 1924.8 1741.84 2023.04 1773.14" stroke="#20272B" stroke-miterlimit="10"/>
<path d="M161.6 134.968C294.4 83.9829 449.6 79.8758 585.76 123.921C721.92 167.967 840.32 258.89 902.4 375.164C930.88 428.698 942.08 488.889 974.24 536.616C1030.72 620.6 1141.44 646.517 1238.4 648.783C1335.36 651.049 1433.76 629.664 1545.76 623.291C1667.68 616.351 1811.04 613.377 1906.56 680.507C2014.88 756.702 2028.16 899.035 1986.88 1018.71C1945.6 1138.38 1846.72 1246.87 1798.88 1351.95C1760.8 1435.79 1771.2 1526.29 1809.12 1601.35C1847.04 1676.41 1917.44 1739.44 2011.2 1771.73" stroke="#20272B" stroke-miterlimit="10"/>
<path d="M198.56 127.603C330.4 78.4593 483.68 75.7685 617.76 120.522C751.84 165.275 868.16 255.774 928.16 371.34C956.64 426.149 966.24 487.897 997.12 537.324C1049.6 621.591 1155.36 650.341 1248.64 656.573C1341.92 662.946 1438.08 646.092 1548.96 642.268C1671.36 637.878 1815.36 632.496 1913.12 697.502C2023.52 771.006 2042.08 912.347 2003.2 1032.87C1964.32 1153.25 1863.52 1262.02 1812.16 1364.27C1772.16 1444.15 1779.68 1530.4 1812.8 1602.63C1845.92 1674.86 1910.08 1736.89 1999.52 1770.31" stroke="#20272B" stroke-miterlimit="10"/>
<path d="M235.52 120.239C366.4 72.9367 517.76 71.8037 649.92 117.124C782.08 162.444 896.16 252.8 954.08 367.375C982.56 423.6 990.56 486.907 1020 538.033C1068.64 622.442 1169.44 654.024 1259.04 664.363C1348.64 674.701 1442.88 657.281 1552.16 661.247C1675.04 665.637 1819.68 651.616 1919.68 714.498C2032.16 785.31 2056 925.802 2019.36 1046.89C1982.72 1167.98 1880.16 1276.89 1825.12 1376.45C1783.2 1452.22 1788 1534.51 1816.32 1603.76C1844.64 1673.02 1902.56 1734.2 1987.52 1768.75" stroke="#20272B" stroke-miterlimit="10"/>
<path d="M272.48 112.873C402.4 67.5525 552 67.8358 681.92 113.722C811.84 159.609 923.84 249.824 980 363.69C1008.32 421.332 1014.88 486.054 1043.04 538.88C1088 623.572 1183.52 657.987 1269.44 672.291C1355.36 686.595 1447.68 673.708 1555.52 680.364C1678.72 687.87 1824.16 670.875 1926.56 731.632C2041.12 799.612 2070.24 939.396 2035.84 1061.19C2001.44 1182.99 1897.44 1291.9 1838.4 1388.91C1794.72 1460.58 1796.48 1538.89 1820.16 1605.32C1843.68 1671.74 1895.36 1731.93 1975.84 1767.62" stroke="#20272B" stroke-miterlimit="10"/>
<path d="M309.44 105.507C438.24 62.0284 586.08 63.7279 713.92 110.323C841.76 156.917 951.52 246.849 1005.76 359.724C1034.08 418.782 1039.2 484.779 1065.92 539.588C1107.2 624.28 1197.44 661.669 1279.68 680.08C1361.76 698.491 1451.84 696.084 1558.72 699.199C1682.72 702.882 1828.48 689.852 1933.12 748.626C2049.6 813.916 2084.16 952.85 2052.16 1075.36C2020.16 1197.86 1914.56 1306.91 1851.52 1401.23C1806.24 1468.93 1804.96 1543.14 1823.68 1606.59C1842.4 1670.04 1887.84 1729.52 1963.84 1766.06" stroke="#20272B" stroke-miterlimit="10"/>
<path d="M346.4 98.1465C474.24 56.6503 620.16 59.7661 746.08 106.927C872 154.088 979.36 244.02 1031.68 356.046C1059.84 416.52 1063.68 483.933 1088.96 540.441C1126.72 625.275 1211.52 665.78 1289.92 688.015C1368.32 710.391 1456.32 712.941 1561.76 718.322C1686.4 724.837 1832.64 709.258 1939.52 765.767C2058.08 828.365 2097.76 966.308 2068.16 1089.52C2038.56 1212.74 1931.52 1321.79 1864.32 1413.42C1817.6 1477.01 1813.12 1547.11 1827.04 1607.73C1840.96 1668.34 1880 1726.83 1951.84 1764.51" stroke="#20272B" stroke-miterlimit="10"/>
<path d="M383.521 90.92C510.401 51.265 654.561 55.9386 778.241 103.808C901.921 151.677 1007.2 241.184 1057.76 352.36C1085.92 414.25 1088.32 482.938 1112 541.429C1146.4 626.121 1225.76 669.741 1300.48 696.084C1375.2 722.426 1461.12 729.932 1565.28 737.58C1690.4 746.927 1837.28 728.657 1946.56 783.041C2067.2 843.09 2112.16 980.042 2084.8 1103.96C2057.44 1227.89 1949.44 1337.08 1877.76 1426.02C1829.76 1485.64 1821.76 1551.64 1831.04 1609.28C1840.32 1667.06 1872.96 1724.56 1940.32 1763.37" stroke="#20272B" stroke-miterlimit="10"/>
<path d="M420.48 83.5533C546.4 45.881 688.64 51.8293 810.24 100.407C931.84 148.984 1034.72 238.066 1083.52 348.392C1111.52 411.698 1112.8 481.661 1134.88 541.993C1165.92 626.685 1239.68 673.28 1310.72 703.729C1381.76 734.179 1465.6 746.5 1568.48 756.414C1694.24 768.593 1841.44 747.633 1953.12 799.893C2075.68 857.251 2126.08 993.352 2101.12 1117.84C2076.16 1242.33 1967.04 1351.81 1890.88 1438.05C1841.76 1493.71 1830.24 1555.6 1834.56 1610.41C1839.04 1665.22 1865.44 1721.87 1928.32 1761.81" stroke="#20272B" stroke-miterlimit="10"/>
<path d="M457.44 76.1927C582.4 40.3615 722.72 47.8677 842.24 97.0115C961.76 146.155 1062.4 235.379 1109.28 344.714C1137.12 409.436 1137.28 480.674 1157.76 542.989C1185.6 627.539 1253.6 677.391 1320.96 711.806C1388.32 746.221 1470.08 763.64 1571.68 775.679C1697.92 790.691 1845.76 767.181 1959.68 817.175C2084.32 871.842 2140 1007.09 2117.28 1132.29C2094.56 1257.49 1984.8 1367.1 1903.84 1450.66C1853.6 1502.5 1838.4 1560 1838.08 1611.97C1837.76 1663.95 1857.92 1719.75 1916.32 1760.68" stroke="#20272B" stroke-miterlimit="10"/>
<path d="M494.4 68.8303C618.4 34.8403 756.96 43.7626 874.4 93.6146C991.84 143.467 1089.92 232.407 1135.2 340.892C1162.88 407.031 1161.92 479.543 1180.64 543.699C1205.28 628.249 1267.68 681.217 1331.2 719.597C1394.72 757.978 1474.56 780.496 1574.72 794.658C1701.6 812.645 1849.92 786.303 1966.24 834.172C2092.8 886.148 2153.92 1020.41 2133.44 1146.31C2113.12 1272.22 2002.56 1382.26 1916.8 1462.85C1865.6 1510.86 1846.72 1564.11 1841.6 1613.11C1836.48 1662.11 1850.4 1717.06 1904.48 1758.98" stroke="#20272B" stroke-miterlimit="10"/>
<path d="M531.36 61.4636C654.4 29.4564 791.04 39.795 906.4 90.2135C1021.76 140.632 1117.44 229.573 1161.12 337.066C1188.48 404.621 1186.72 478.408 1203.68 544.546C1225.28 628.955 1281.76 685.039 1341.6 727.526C1401.44 770.014 1479.04 797.489 1578.08 813.776C1705.44 834.736 1854.24 805.703 1972.96 851.306C2101.44 900.733 2168 1034 2149.92 1160.62C2131.84 1287.23 2020.96 1397.7 1930.08 1475.16C1878.08 1519.49 1855.2 1568.35 1845.28 1614.52C1835.36 1660.69 1843.04 1714.65 1892.64 1757.71" stroke="#20272B" stroke-miterlimit="10"/>
<path d="M568.32 54.1017C690.24 23.9356 825.12 35.832 938.4 86.817C1051.68 137.802 1144.96 226.601 1186.88 333.245C1214.08 402.216 1211.52 477.277 1226.56 545.399C1245.28 629.807 1295.68 689.007 1351.84 735.46C1408 781.913 1483.52 814.486 1581.28 832.898C1709.28 856.974 1858.56 825.108 1979.52 868.445C2110.08 915.182 2181.92 1047.6 2166.08 1174.78C2150.24 1301.96 2039.2 1413.28 1943.2 1487.49C1890.56 1528.28 1863.68 1572.46 1848.96 1615.8C1834.24 1659.14 1835.68 1712.11 1880.8 1756.29" stroke="#20272B" stroke-miterlimit="10"/>
<path d="M605.44 46.7319C726.4 18.5485 859.52 31.7197 970.56 83.4128C1081.6 135.106 1172.48 223.763 1212.8 329.415C1239.68 399.945 1236.48 476.139 1249.6 546.102C1265.28 630.369 1309.76 692.684 1362.24 743.244C1414.72 793.804 1488.16 831.476 1584.48 851.87C1712.96 879.062 1862.88 844.364 1986.24 885.435C2118.72 929.622 2195.84 1061.05 2182.4 1188.94C2168.96 1316.82 2057.76 1428.99 1956.32 1499.8C1903.04 1537.05 1872.16 1576.71 1852.64 1617.07C1833.12 1657.43 1828.32 1709.69 1869.12 1754.87" stroke="#20272B" stroke-miterlimit="10"/>
<path d="M642.4 39.3736C762.4 13.0313 893.6 27.7603 1002.72 80.0199C1111.84 132.28 1200 220.937 1238.72 325.598C1265.28 397.543 1261.44 475.012 1272.48 546.958C1285.44 631.224 1323.84 696.655 1372.48 751.181C1421.12 805.706 1492.48 848.619 1587.68 870.996C1716.64 901.303 1867.04 863.773 1992.8 902.72C2127.2 944.357 2209.76 1074.65 2198.72 1203.39C2187.68 1332.13 2076.48 1445.28 1969.44 1512.42C1915.52 1546.26 1880.48 1581.24 1856.16 1618.63C1831.84 1656.16 1820.8 1707.43 1857.12 1753.74" stroke="#20272B" stroke-miterlimit="10"/>
<path d="M679.36 32.0056C798.4 7.64612 927.68 23.7914 1034.72 76.6175C1141.76 129.444 1227.36 218.101 1264.64 321.629C1291.04 394.991 1286.72 473.734 1295.52 547.521C1305.6 631.788 1337.92 700.334 1382.88 758.825C1427.84 817.316 1497.12 865.469 1591.04 889.828C1720.32 923.393 1871.52 882.889 1999.52 919.57C2136 958.658 2223.84 1087.96 2215.04 1217.27C2206.24 1346.57 2095.2 1461.29 1982.56 1524.45C1928 1555.04 1888.96 1585.07 1859.84 1619.76C1830.72 1654.46 1813.44 1704.74 1845.28 1752.18" stroke="#20272B" stroke-miterlimit="10"/>
<path d="M716.32 24.6418C834.4 2.12345 961.76 19.6849 1066.72 73.2192C1171.68 126.753 1254.72 215.127 1290.4 317.806C1316.32 392.725 1311.68 472.602 1318.4 548.371C1325.76 632.638 1351.84 704.159 1393.12 766.757C1434.4 829.355 1501.44 882.606 1594.08 908.948C1723.84 945.771 1875.52 902.292 2006.08 936.707C2144.48 973.246 2237.76 1101.56 2231.2 1231.57C2224.64 1361.58 2113.92 1478 1995.52 1536.77C1940.32 1564.25 1897.12 1589.31 1863.36 1621.04C1829.44 1652.76 1805.92 1702.33 1833.28 1750.63" stroke="#20272B" stroke-miterlimit="10"/>
<path d="M753.28 17.2767C870.4 -3.40051 996 15.7189 1098.72 69.8196C1201.44 123.92 1282.08 212.294 1316.16 313.981C1341.76 390.317 1336.8 471.468 1341.28 549.079C1346.08 633.345 1365.92 707.982 1403.36 774.546C1440.96 841.109 1505.76 899.6 1597.28 927.925C1727.36 968.005 1879.84 921.552 2012.64 953.701C2152.96 987.691 2251.68 1115.01 2247.52 1245.59C2243.36 1376.31 2132.64 1494.71 2008.64 1548.95C1952.96 1573.31 1905.6 1593.42 1866.88 1622.17C1828.32 1651.06 1798.24 1699.64 1821.44 1749.07" stroke="#20272B" stroke-miterlimit="10"/>
<path d="M790.24 9.91306C906.4 -8.78144 1030.08 11.7542 1130.88 66.4214C1231.68 121.089 1309.6 209.463 1342.24 310.158C1367.52 388.052 1362.4 470.478 1364.32 549.929C1366.4 634.338 1380 711.948 1413.76 782.477C1447.52 853.007 1510.24 916.88 1600.64 946.904C1731.04 990.383 1884.32 940.814 2019.36 970.697C2161.76 1002.14 2265.76 1128.33 2263.84 1259.75C2261.92 1391.04 2151.52 1511.99 2021.76 1561.27C1965.28 1582.66 1913.92 1597.53 1870.56 1623.45C1827.2 1649.36 1790.88 1697.09 1809.6 1747.65" stroke="#20272B" stroke-miterlimit="10"/>
<path d="M827.2 2.55062C942.4 -14.3028 1064.16 7.64914 1162.88 63.0245C1261.6 118.4 1336.8 206.632 1368 306.336C1392.8 385.646 1387.68 469.347 1387.2 550.639C1386.72 635.048 1393.92 715.632 1424 790.269C1454.08 864.764 1514.4 934.018 1603.68 965.884C1734.4 1012.76 1888.32 960.219 2025.92 987.694C2170.24 1016.59 2279.68 1141.78 2280 1273.78C2280.32 1405.77 2170.08 1529.41 2034.72 1573.46C1977.44 1592.01 1922.24 1601.64 1874.08 1624.72C1825.92 1647.81 1783.36 1694.54 1797.6 1746.24" stroke="#20272B" stroke-miterlimit="10"/>
<path d="M864.32 -4.81412C978.4 -19.6847 1098.56 3.68339 1195.04 59.7669C1291.52 115.85 1364.16 203.799 1393.92 302.654C1418.24 383.522 1413.12 468.497 1410.24 551.63C1407.2 636.322 1408 719.739 1434.4 798.2C1460.8 876.802 1518.88 951.155 1607.04 985.003C1738.08 1035.28 1892.8 979.763 2032.64 1004.83C2179.04 1031.31 2293.76 1155.38 2296.48 1288.08C2299.2 1420.78 2188.96 1547.4 2048 1585.92C1989.92 1601.78 1930.88 1606.03 1877.76 1626.14C1824.8 1646.25 1776 1692.28 1785.76 1744.96" stroke="#20272B" stroke-miterlimit="10"/>
<path d="M901.28 -12.1814C1014.4 -25.2109 1132.64 -0.284878 1227.2 56.3651C1321.6 113.015 1391.52 200.964 1419.84 298.827C1443.68 381.111 1438.72 467.502 1433.12 552.336C1427.68 637.169 1422.08 723.419 1444.64 805.986C1467.36 888.554 1523.04 968.288 1610.24 1003.98C1741.44 1057.65 1897.12 999.021 2039.2 1021.82C2187.52 1045.76 2307.52 1168.83 2312.64 1302.1C2317.76 1435.37 2207.2 1565.38 2061.12 1598.09C2001.92 1611.27 1939.2 1609.99 1881.44 1627.27C1823.68 1644.55 1768.64 1689.58 1774.08 1743.26" stroke="#20272B" stroke-miterlimit="10"/>
</g>
</svg>
