<svg width="279" height="37" viewBox="0 0 279 37" fill="none" xmlns="http://www.w3.org/2000/svg">
<mask id="mask0_96_6" style="mask-type:luminance" maskUnits="userSpaceOnUse" x="0" y="0" width="37" height="37">
<path d="M37 0H0V37H37V0Z" fill="white"/>
</mask>
<g mask="url(#mask0_96_6)">
<path d="M17.3581 0.547488C14.9387 0.701292 12.6204 1.32231 10.4496 2.40184C7.77861 3.72804 5.62799 5.53306 3.82424 7.9591C3.64502 8.19706 3.50049 8.4031 3.50627 8.4147C3.51205 8.43502 6.94033 10.4345 6.99236 10.449C7.00682 10.4519 7.11377 10.33 7.2294 10.1762C9.47541 7.2249 12.8401 5.23996 16.4765 4.72631C17.2454 4.61894 17.6067 4.59282 18.4999 4.59282C19.3931 4.59282 19.7545 4.61894 20.5234 4.72631C24.1569 5.23996 27.4927 7.20459 29.7618 10.1646C29.8832 10.3242 29.9931 10.4519 30.0075 10.449C30.0595 10.4345 33.4878 8.43502 33.4936 8.4147C33.5052 8.38568 32.8345 7.49188 32.4819 7.0711C31.1522 5.47792 29.5999 4.15462 27.7788 3.06058C27.1429 2.68043 25.9288 2.07972 25.2495 1.80984C23.388 1.07564 21.5669 0.669371 19.5695 0.544587C19.0231 0.512665 17.9131 0.512665 17.3581 0.547488Z" fill="white"/>
<path d="M17.6039 6.64178C16.8986 6.69401 16.0748 6.83621 15.381 7.01903C15.0602 7.10609 14.3867 7.32084 14.3173 7.35856C14.2999 7.37017 14.5803 7.38178 14.9388 7.38178C15.751 7.38758 16.6558 7.46594 17.205 7.58492C17.2744 7.59943 17.3178 7.5675 17.5635 7.32954C17.7167 7.18154 17.9335 6.95809 18.0433 6.83331L18.2457 6.60986L18.0924 6.61276C18.0057 6.61566 17.786 6.63017 17.6039 6.64178Z" fill="white"/>
<path d="M19.0896 6.86308C18.9913 6.98786 18.7601 7.25484 18.578 7.45508L18.2427 7.82072L18.4363 7.87296C18.7919 7.96872 19.5492 8.2357 19.9742 8.41563C21.0726 8.88284 22.2867 9.61123 23.0903 10.2903L23.2406 10.418L23.2984 10.3483C23.6135 9.97978 24.5298 8.6768 24.683 8.38951C24.7119 8.32857 24.6974 8.31696 24.4199 8.16025C22.9515 7.33319 21.1911 6.79633 19.4828 6.65414L19.266 6.63672L19.0896 6.86308Z" fill="white"/>
<path d="M12.6609 8.11481C11.9874 8.48336 11.4006 8.88093 10.7965 9.37716C10.3976 9.70508 9.68359 10.3725 9.68359 10.419C9.68359 10.4422 9.85703 10.4451 10.2704 10.4306C11.152 10.3987 11.0451 10.448 11.3891 9.94014C11.8198 9.29591 12.1609 8.87222 12.7737 8.21057C12.9211 8.04806 13.0396 7.91748 13.0338 7.91748C13.028 7.91748 12.8604 8.00744 12.6609 8.11481Z" fill="white"/>
<path d="M14.3665 8.20131C14.3665 8.25645 14.8087 9.25182 14.8347 9.25182C14.9446 9.25182 16.4159 8.35802 16.4188 8.29127C16.4188 8.25645 15.7453 8.20422 15.0689 8.1868C14.589 8.1752 14.3665 8.1781 14.3665 8.20131Z" fill="white"/>
<path d="M17.257 8.674C16.8032 9.04545 16.147 9.47494 15.5197 9.81737C15.3232 9.92474 15.1584 10.0176 15.1526 10.0205C15.1439 10.0292 17.283 14.9974 17.3061 15.0264C17.3293 15.0525 18.2976 14.5418 18.7601 14.2632C20.1881 13.4042 21.1015 12.6729 22.4399 11.3177L22.7261 11.0304L22.4688 10.8272C21.327 9.91023 19.899 9.16153 18.4855 8.72913C18.1357 8.62176 17.5489 8.46505 17.5171 8.47086C17.5085 8.47086 17.3928 8.56372 17.257 8.674Z" fill="white"/>
<path d="M13.2333 8.89707C12.7824 9.3904 12.1985 10.1159 12.1985 10.1798C12.1985 10.2378 13.5166 9.84311 13.9386 9.66029L14.0774 9.60225L13.9907 9.40491C13.7045 8.73456 13.6178 8.54013 13.5947 8.53433C13.5831 8.52852 13.4183 8.69103 13.2333 8.89707Z" fill="white"/>
<path d="M25.2786 8.96752C24.9924 9.44054 24.4085 10.2676 24.0182 10.7493L23.8506 10.9554L24.0992 11.1991C25.3595 12.4441 26.4695 14.1853 27.0765 15.8655C27.1286 16.0164 27.1835 16.1557 27.195 16.176C27.2413 16.2602 28.4785 14.844 29.1982 13.8806C29.3196 13.7209 29.4266 13.5729 29.4382 13.5526C29.4613 13.5149 29.1867 12.9722 28.9179 12.5282C28.0882 11.1498 27.0418 9.98901 25.7786 9.04587C25.5879 8.90368 25.4231 8.7876 25.4115 8.7876C25.3971 8.7876 25.3393 8.86885 25.2786 8.96752Z" fill="white"/>
<path d="M14.0051 10.5046C13.346 10.7571 12.4961 10.9805 11.6752 11.1198C11.5769 11.1373 11.5654 11.1547 11.3544 11.5522C10.6144 12.9423 10.1374 14.5296 9.98707 16.1228C9.96395 16.3695 9.94373 16.6133 9.94373 16.6597V16.7438L10.3426 16.7264C11.9874 16.6452 13.1494 16.4682 14.5369 16.0822C15.1844 15.9023 16.4708 15.4496 16.543 15.377C16.5633 15.3567 14.4473 10.4205 14.4011 10.3798C14.3895 10.3711 14.2132 10.4263 14.0051 10.5046Z" fill="white"/>
<path d="M8.7557 11.5201C7.78445 12.8405 7.08492 14.3176 6.70914 15.8527C6.66289 16.0442 6.61375 16.2474 6.60507 16.3054L6.58484 16.4128L6.8421 16.4592C7.4289 16.5637 8.21515 16.6595 8.81062 16.6972C9.07656 16.7146 9.13437 16.7088 9.13437 16.6769C9.13437 16.5376 9.20375 15.873 9.25289 15.5045C9.435 14.158 9.86859 12.736 10.4525 11.5665L10.6086 11.2531H9.96398C9.60843 11.2531 9.23843 11.2444 9.14593 11.2357L8.97539 11.2183L8.7557 11.5201Z" fill="white"/>
<path d="M22.9284 11.9795C21.5929 13.3841 19.9539 14.6 18.1184 15.5489L17.6385 15.7956L18.7919 18.4654C19.425 19.9338 19.9626 21.1787 19.9886 21.231L20.032 21.3238L20.7171 20.9785C22.8503 19.899 24.6425 18.6511 26.3538 17.0579L26.5619 16.8635L26.4492 16.5327C25.9607 15.0614 25.1831 13.6713 24.2089 12.5135C23.9632 12.2204 23.3591 11.5732 23.3331 11.5732C23.3215 11.5732 23.1394 11.7561 22.9284 11.9795Z" fill="white"/>
<path d="M1.46266 12.284C0.841174 13.9149 0.474065 15.5661 0.31219 17.435C0.234143 18.3462 0.271721 19.9394 0.393127 20.9899C0.884534 25.2325 2.95422 29.3098 6.0761 32.1973C8.9725 34.8787 12.4181 36.4835 16.3263 36.9797L16.4766 37L16.4708 34.9454L16.4621 32.8937L16.0574 32.8241C13.664 32.4178 11.3659 31.347 9.40899 29.7277C8.99274 29.3853 7.96946 28.3609 7.63414 27.9546C5.72055 25.633 4.63946 23.0009 4.36196 19.9887C4.31571 19.4867 4.31571 18.146 4.36196 17.6381C4.46313 16.5296 4.67993 15.4413 4.99789 14.4489C5.06149 14.2486 5.10774 14.0774 5.09907 14.0658C5.09328 14.0542 5.03258 14.0136 4.96321 13.9758C4.74641 13.8511 1.75172 12.1186 1.65922 12.0635L1.56961 12.0083L1.46266 12.284Z" fill="white"/>
<path d="M33.6816 13.0236C32.7219 13.5779 31.9241 14.0451 31.9096 14.0596C31.8923 14.077 31.9067 14.1525 31.9414 14.2598C32.2594 15.1711 32.5138 16.3812 32.6236 17.4955C32.6814 18.0788 32.6901 19.4253 32.638 19.9883C32.3259 23.3778 30.9644 26.3581 28.6316 28.7493C26.533 30.8997 23.8274 32.3332 20.9426 32.8237L20.5379 32.8933L20.5292 34.945L20.5234 36.9996L20.6738 36.9793C23.9459 36.5643 26.9146 35.36 29.4844 33.407C33.3434 30.4731 35.864 26.1956 36.5491 21.4103C36.6849 20.4758 36.7225 19.91 36.7225 18.813C36.7225 17.2053 36.5809 15.9894 36.2195 14.4891C36.0403 13.7433 35.679 12.597 35.4766 12.1327L35.4246 12.0137L33.6816 13.0236Z" fill="white"/>
<path d="M29.3803 14.9598C28.831 15.6476 28.3975 16.1438 27.8771 16.6807L27.4667 17.1015L27.5476 17.4555C27.75 18.3406 27.8367 19.0632 27.8569 20.0325C27.8743 20.845 27.8453 21.3993 27.7471 22.1074C27.6979 22.4701 27.5332 23.3117 27.4725 23.5264C27.4551 23.5874 27.484 23.5729 27.6806 23.4278C28.3657 22.9228 29.0941 22.3279 29.8168 21.6837C30.4585 21.112 30.4325 21.1439 30.4845 20.8566C30.7678 19.217 30.6955 17.412 30.2764 15.7869C30.1636 15.3458 29.9006 14.5304 29.8485 14.4578C29.8196 14.4201 29.7445 14.5013 29.3803 14.9598Z" fill="white"/>
<path d="M16.491 16.276C15.6845 16.6097 14.4618 16.9753 13.4847 17.1727C12.4615 17.3816 11.6694 17.4716 10.3137 17.5383L9.94373 17.5557V17.7821C9.94373 18.0926 10.0189 18.8065 10.1027 19.3143C10.2848 20.388 10.6346 21.4821 11.1289 22.5297C11.311 22.9156 11.6058 23.4583 11.6492 23.4844C11.6868 23.5076 12.2533 23.4554 12.95 23.3655C14.9474 23.1101 16.8061 22.6284 18.7457 21.868C19.0319 21.7549 19.2689 21.6591 19.2747 21.6533C19.2978 21.6359 16.8957 16.128 16.8668 16.1309C16.8523 16.1338 16.6818 16.1976 16.491 16.276Z" fill="white"/>
<path d="M6.43453 17.307C6.3507 17.7422 6.3189 19.2339 6.38539 19.8868C6.49234 20.9837 6.72648 22.0226 7.08203 23.0006C7.20343 23.3314 7.24679 23.4156 7.29593 23.4272C7.33062 23.4359 7.585 23.462 7.8625 23.4881C8.3539 23.5317 10.7242 23.5839 10.7242 23.5491C10.7242 23.5404 10.6086 23.2966 10.4641 23.0035C9.72695 21.5003 9.30492 19.9739 9.16328 18.2907C9.14882 18.0992 9.13437 17.8467 9.13437 17.7306V17.5217H8.99851C8.60828 17.5217 7.74398 17.423 6.55882 17.2402C6.46054 17.2257 6.45187 17.2315 6.43453 17.307Z" fill="white"/>
<path d="M26.3624 18.1375C25.1108 19.2606 23.547 20.3662 21.9542 21.2513C21.5929 21.4516 20.48 22.0204 20.3846 22.0523C20.3586 22.061 20.6535 22.7691 21.3212 24.3129C21.856 25.5491 22.2982 26.5677 22.304 26.5735C22.3214 26.5909 22.4688 26.5242 23.1105 26.2108C24.1164 25.7174 25.2438 25.079 26.1283 24.5044L26.4087 24.3216L26.5012 24.0198C26.8741 22.7923 27.0215 21.8724 27.0475 20.6187C27.0678 19.6059 27.0042 18.7934 26.8394 18.0069C26.8163 17.8909 26.796 17.7951 26.796 17.7893C26.796 17.7574 26.7007 17.8357 26.3624 18.1375Z" fill="white"/>
<path d="M19.3093 22.516C17.3032 23.3575 14.9676 23.9582 12.6782 24.2223C12.4123 24.2542 12.1868 24.2862 12.1782 24.292C12.1695 24.3007 12.2649 24.4429 12.3892 24.6054C13.5368 26.126 15.0081 27.3361 16.7482 28.1893L17.1934 28.4099L17.5374 28.317C18.685 28.0123 19.9828 27.5741 21.1304 27.104C21.4137 26.9879 21.5467 26.9182 21.5409 26.8921C21.5264 26.8196 19.6128 22.397 19.5984 22.3999C19.5897 22.3999 19.4596 22.4521 19.3093 22.516Z" fill="white"/>
<path d="M29.7966 22.7808C29.204 23.2944 28.253 24.0286 27.4841 24.5684L27.0621 24.8644L26.9089 25.2503C26.3192 26.7274 25.3393 28.2422 24.2264 29.3972C24.0616 29.5713 23.9373 29.7106 23.9489 29.7106C23.9807 29.7106 24.3651 29.4988 24.7871 29.2434C26.3886 28.2858 27.7934 26.8986 28.7964 25.2851C29.0913 24.815 29.4989 24.0257 29.7186 23.5004C29.8631 23.1493 30.0683 22.5718 30.0481 22.5718C30.0423 22.5718 29.9296 22.6647 29.7966 22.7808Z" fill="white"/>
<path d="M7.68908 24.3958C7.72377 24.4654 7.84807 24.6889 7.96658 24.8978C8.91471 26.5548 10.2531 27.9739 11.8603 29.0244L12.1985 29.2478L12.6667 29.2014C13.6409 29.1057 14.5832 28.9693 15.5747 28.7777C15.7684 28.74 15.9274 28.7023 15.9274 28.6936C15.9274 28.6849 15.7799 28.5949 15.6036 28.4933C14.6179 27.9304 13.7074 27.2281 12.8633 26.3749C12.2794 25.7858 11.8458 25.2606 11.3833 24.5902L11.2243 24.3609L10.0999 24.3667C9.09104 24.3697 8.47244 24.3522 7.83939 24.2942L7.62549 24.2739L7.68908 24.3958Z" fill="white"/>
<path d="M25.5821 25.7988C25.0473 26.1209 24.2553 26.5475 23.4922 26.9277C23.0499 27.1482 22.6741 27.331 22.6597 27.3368C22.6365 27.3456 23.2783 28.8807 23.3794 29.0635C23.3997 29.0983 23.4719 29.0345 23.7119 28.7762C24.4085 28.0275 24.9751 27.2614 25.4433 26.4314C25.6659 26.0397 25.8509 25.674 25.8365 25.6595C25.8307 25.6537 25.7151 25.7176 25.5821 25.7988Z" fill="white"/>
<path d="M21.5351 27.8151C20.7575 28.1459 18.7196 28.8685 18.5664 28.8685C18.4566 28.8685 18.5896 28.9237 18.9046 29.0078C19.9424 29.2922 21.1362 29.4489 22.2375 29.4489C22.5786 29.4489 22.6364 29.4431 22.6278 29.4054C22.6046 29.2893 21.8936 27.6787 21.8675 27.6816C21.8531 27.6845 21.7028 27.7426 21.5351 27.8151Z" fill="white"/>
<path d="M16.8089 29.3391C15.9475 29.5393 14.719 29.7657 13.9096 29.873C13.6986 29.8992 13.5367 29.9311 13.5483 29.9427C13.6177 30.0065 14.5803 30.3664 15.0283 30.497C16.251 30.8539 17.2425 30.9961 18.5144 30.9961C19.5088 30.9961 20.2546 30.9177 21.1709 30.7088C21.538 30.6275 22.278 30.4128 22.5468 30.3112L22.7347 30.2416L21.882 30.2242C20.9078 30.2068 20.3615 30.1487 19.4943 29.9717C18.8382 29.8353 17.9912 29.5857 17.3986 29.3536L17.1558 29.2578L16.8089 29.3391Z" fill="white"/>
</g>
<path d="M61.5599 25.9919H69.4959V28.9999H57.4319L61.5599 25.9919ZM44.8879 17.4479C44.8879 15.8479 45.1866 14.3439 45.7839 12.9359C46.4026 11.5066 47.2559 10.2479 48.3439 9.15993C49.4319 8.0506 50.6799 7.1866 52.0879 6.56793C53.5172 5.92793 55.0532 5.60793 56.6959 5.60793C58.3172 5.60793 59.8319 5.92793 61.2399 6.56793C62.6692 7.1866 63.9279 8.0506 65.0159 9.15993C66.1252 10.2479 66.9892 11.5066 67.6079 12.9359C68.2266 14.3439 68.5359 15.8479 68.5359 17.4479C68.5359 19.0906 68.2266 20.6266 67.6079 22.0559C66.9892 23.4852 66.1252 24.7439 65.0159 25.8319C63.9279 26.8986 62.6692 27.7412 61.2399 28.3599C59.8319 28.9572 58.3172 29.2559 56.6959 29.2559C55.0532 29.2559 53.5172 28.9572 52.0879 28.3599C50.6799 27.7626 49.4319 26.9306 48.3439 25.8639C47.2559 24.7972 46.4026 23.5492 45.7839 22.1199C45.1866 20.6906 44.8879 19.1332 44.8879 17.4479ZM48.0879 17.4799C48.0879 18.6959 48.3119 19.8372 48.7599 20.9039C49.2079 21.9492 49.8266 22.8772 50.6159 23.6879C51.4052 24.4986 52.3226 25.1279 53.3679 25.5759C54.4132 26.0239 55.5439 26.2479 56.7599 26.2479C57.9546 26.2479 59.0746 26.0239 60.1199 25.5759C61.1652 25.1279 62.0719 24.4986 62.8399 23.6879C63.6079 22.8772 64.2159 21.9492 64.6639 20.9039C65.1119 19.8372 65.3359 18.6852 65.3359 17.4479C65.3359 16.2532 65.1119 15.1226 64.6639 14.0559C64.2159 12.9892 63.5972 12.0612 62.8079 11.2719C62.0186 10.4612 61.1012 9.83193 60.0559 9.38393C59.0106 8.9146 57.8906 8.67993 56.6959 8.67993C55.4799 8.67993 54.3492 8.9146 53.3039 9.38393C52.2586 9.83193 51.3412 10.4612 50.5519 11.2719C49.7626 12.0826 49.1546 13.0212 48.7279 14.0879C48.3012 15.1546 48.0879 16.2852 48.0879 17.4799ZM73.2629 17.4479C73.2629 15.8479 73.5616 14.3439 74.1589 12.9359C74.7776 11.5066 75.6309 10.2479 76.7189 9.15993C77.8069 8.0506 79.0549 7.1866 80.4629 6.56793C81.8922 5.92793 83.4282 5.60793 85.0709 5.60793C86.6922 5.60793 88.2069 5.92793 89.6149 6.56793C91.0442 7.1866 92.3029 8.0506 93.3909 9.15993C94.5002 10.2479 95.3642 11.5066 95.9829 12.9359C96.6016 14.3439 96.9109 15.8479 96.9109 17.4479C96.9109 19.0906 96.6016 20.6266 95.9829 22.0559C95.3642 23.4852 94.5002 24.7439 93.3909 25.8319C92.3029 26.8986 91.0442 27.7412 89.6149 28.3599C88.2069 28.9572 86.6922 29.2559 85.0709 29.2559C83.4282 29.2559 81.8922 28.9572 80.4629 28.3599C79.0549 27.7626 77.8069 26.9306 76.7189 25.8639C75.6309 24.7972 74.7776 23.5492 74.1589 22.1199C73.5616 20.6906 73.2629 19.1332 73.2629 17.4479ZM76.4629 17.4799C76.4629 18.6959 76.6869 19.8372 77.1349 20.9039C77.5829 21.9492 78.2016 22.8772 78.9909 23.6879C79.7802 24.4986 80.6976 25.1386 81.7429 25.6079C82.7882 26.0559 83.9189 26.2799 85.1349 26.2799C86.3296 26.2799 87.4496 26.0559 88.4949 25.6079C89.5402 25.1386 90.4469 24.4986 91.2149 23.6879C91.9829 22.8772 92.5909 21.9492 93.0389 20.9039C93.4869 19.8372 93.7109 18.6852 93.7109 17.4479C93.7109 16.2319 93.4869 15.0906 93.0389 14.0239C92.5909 12.9359 91.9722 11.9866 91.1829 11.1759C90.3936 10.3652 89.4762 9.73593 88.4309 9.28793C87.3856 8.8186 86.2656 8.58393 85.0709 8.58393C83.8549 8.58393 82.7242 8.8186 81.6789 9.28793C80.6336 9.75726 79.7162 10.3972 78.9269 11.2079C78.1376 12.0186 77.5296 12.9679 77.1029 14.0559C76.6762 15.1226 76.4629 16.2639 76.4629 17.4799ZM102.141 28.9999V5.12793H102.173L114.301 22.3439L112.989 22.0879L125.085 5.12793H125.149V28.9999H122.077V12.1679L122.269 13.7359L113.533 26.0879H113.469L104.605 13.7359L105.149 12.2959V28.9999H102.141ZM131.797 5.86393H146.837V8.83993H134.901V15.8799H145.557V18.8559H134.901V26.0239H147.285V28.9999H131.797V5.86393ZM150.752 5.86393H154.688L169.76 28.9999H165.792L150.752 5.86393ZM150.432 28.9999L158.464 16.4239L159.968 19.4319L154.272 28.9999H150.432ZM160.064 15.3039L165.696 5.86393H169.44L161.728 17.8959L160.064 15.3039ZM179.401 9.92793H182.377V15.8159H186.025V18.1519H182.377V28.9999H179.401V18.1519H176.969V15.8159H179.401V9.92793ZM192.277 15.7519L192.565 19.5919L192.405 19.0799C192.746 18.2692 193.237 17.5866 193.877 17.0319C194.538 16.4559 195.221 16.0186 195.925 15.7199C196.65 15.3999 197.279 15.2399 197.813 15.2399L197.653 18.1839C196.65 18.1199 195.765 18.3119 194.997 18.7599C194.25 19.2079 193.653 19.8052 193.205 20.5519C192.778 21.2986 192.565 22.0986 192.565 22.9519V28.9999H189.621V15.7519H192.277ZM206.843 29.3199C205.606 29.3199 204.475 29.0532 203.451 28.5199C202.449 27.9866 201.649 27.2079 201.051 26.1839C200.475 25.1386 200.187 23.8692 200.187 22.3759C200.187 20.9039 200.497 19.6346 201.115 18.5679C201.734 17.4799 202.555 16.6479 203.579 16.0719C204.625 15.4959 205.766 15.2079 207.003 15.2079C208.241 15.2079 209.286 15.4959 210.139 16.0719C210.993 16.6266 211.643 17.2879 212.091 18.0559L211.899 18.5679L212.187 15.7519H214.939V28.9999H211.963V25.5439L212.283 26.3119C212.198 26.5252 212.006 26.8026 211.707 27.1439C211.43 27.4639 211.046 27.7946 210.555 28.1359C210.086 28.4772 209.542 28.7652 208.923 28.9999C208.305 29.2132 207.611 29.3199 206.843 29.3199ZM207.643 26.8559C208.39 26.8559 209.062 26.7172 209.659 26.4399C210.257 26.1626 210.747 25.7786 211.131 25.2879C211.537 24.7759 211.814 24.1679 211.963 23.4639V20.8719C211.793 20.2319 211.494 19.6772 211.067 19.2079C210.641 18.7172 210.129 18.3439 209.531 18.0879C208.934 17.8106 208.273 17.6719 207.547 17.6719C206.758 17.6719 206.033 17.8639 205.371 18.2479C204.71 18.6319 204.177 19.1652 203.771 19.8479C203.387 20.5306 203.195 21.3306 203.195 22.2479C203.195 23.1012 203.398 23.8799 203.803 24.5839C204.209 25.2879 204.753 25.8426 205.435 26.2479C206.118 26.6532 206.854 26.8559 207.643 26.8559ZM225.465 29.3199C224.249 29.3199 223.14 29.0319 222.137 28.4559C221.156 27.8586 220.377 27.0266 219.801 25.9599C219.225 24.8719 218.937 23.6239 218.937 22.2159C218.937 20.7439 219.236 19.4852 219.833 18.4399C220.452 17.3946 221.284 16.5946 222.329 16.0399C223.375 15.4852 224.548 15.2079 225.849 15.2079C226.895 15.2079 227.887 15.4319 228.825 15.8799C229.785 16.3279 230.532 16.9466 231.065 17.7359L230.937 18.7919V4.23193H233.881V28.9999H230.905V25.7039L231.225 26.5359C230.607 27.3466 229.807 28.0186 228.825 28.5519C227.844 29.0639 226.724 29.3199 225.465 29.3199ZM226.393 26.7919C227.183 26.7919 227.887 26.6532 228.505 26.3759C229.124 26.0772 229.636 25.6719 230.041 25.1599C230.447 24.6479 230.735 24.0399 230.905 23.3359V20.8399C230.735 20.1999 230.425 19.6452 229.977 19.1759C229.551 18.6852 229.028 18.3012 228.409 18.0239C227.812 17.7252 227.14 17.5759 226.393 17.5759C225.583 17.5759 224.836 17.7786 224.153 18.1839C223.492 18.5679 222.959 19.1012 222.553 19.7839C222.148 20.4666 221.945 21.2559 221.945 22.1519C221.945 23.0266 222.148 23.8159 222.553 24.5199C222.959 25.2026 223.503 25.7572 224.185 26.1839C224.868 26.5892 225.604 26.7919 226.393 26.7919ZM239.058 15.7519H242.034V28.9999H239.058V15.7519ZM238.834 10.9519C238.834 10.4826 239.016 10.0879 239.378 9.76793C239.762 9.44793 240.178 9.28793 240.626 9.28793C241.074 9.28793 241.469 9.44793 241.81 9.76793C242.173 10.0879 242.354 10.4826 242.354 10.9519C242.354 11.4426 242.173 11.8479 241.81 12.1679C241.469 12.4666 241.074 12.6159 240.626 12.6159C240.178 12.6159 239.762 12.4559 239.378 12.1359C239.016 11.8159 238.834 11.4212 238.834 10.9519ZM249.839 15.7519L250.095 18.9839L249.967 18.4719C250.394 17.4906 251.087 16.7119 252.047 16.1359C253.007 15.5386 254.117 15.2399 255.375 15.2399C256.634 15.2399 257.658 15.6132 258.447 16.3599C259.258 17.0852 259.674 18.0346 259.695 19.2079V28.9999H256.687V20.2639C256.666 19.5386 256.453 18.9519 256.047 18.5039C255.663 18.0346 255.055 17.7999 254.223 17.7999C253.455 17.7999 252.762 18.0132 252.143 18.4399C251.525 18.8666 251.034 19.4532 250.671 20.1999C250.33 20.9466 250.159 21.8106 250.159 22.7919V28.9999H247.183V15.7519H249.839ZM271.239 35.5599C270.257 35.5599 269.393 35.4426 268.647 35.2079C267.9 34.9946 267.217 34.6852 266.599 34.2799C266.001 33.8746 265.425 33.4159 264.871 32.9039L266.599 30.8879C267.303 31.5492 268.017 32.0612 268.743 32.4239C269.468 32.7866 270.279 32.9679 271.175 32.9679C272.177 32.9679 273.02 32.7972 273.703 32.4559C274.407 32.1359 274.94 31.6772 275.303 31.0799C275.665 30.5039 275.847 29.8319 275.847 29.0639L275.879 25.4799L276.135 26.0559C275.751 26.9732 275.057 27.7519 274.055 28.3919C273.052 29.0106 271.836 29.3199 270.407 29.3199C269.191 29.3199 268.071 29.0106 267.047 28.3919C266.044 27.7732 265.233 26.9412 264.615 25.8959C264.017 24.8292 263.719 23.6346 263.719 22.3119C263.719 20.9252 264.039 19.7092 264.679 18.6639C265.319 17.5972 266.161 16.7546 267.207 16.1359C268.252 15.5172 269.393 15.2079 270.631 15.2079C271.804 15.2079 272.871 15.4532 273.831 15.9439C274.812 16.4132 275.527 17.0212 275.975 17.7679L275.815 18.3119L276.135 15.7519H278.855V29.0959C278.855 30.2906 278.545 31.3786 277.927 32.3599C277.308 33.3412 276.433 34.1199 275.303 34.6959C274.172 35.2719 272.817 35.5599 271.239 35.5599ZM266.695 22.2479C266.695 23.1012 266.897 23.8799 267.303 24.5839C267.708 25.2879 268.252 25.8426 268.935 26.2479C269.639 26.6532 270.417 26.8559 271.271 26.8559C272.06 26.8559 272.764 26.7172 273.383 26.4399C274.023 26.1412 274.556 25.7466 274.983 25.2559C275.409 24.7439 275.708 24.1572 275.879 23.4959V20.8719C275.687 20.2319 275.367 19.6772 274.919 19.2079C274.471 18.7172 273.937 18.3439 273.319 18.0879C272.7 17.8106 272.017 17.6719 271.271 17.6719C270.417 17.6719 269.639 17.8639 268.935 18.2479C268.252 18.6319 267.708 19.1759 267.303 19.8799C266.897 20.5626 266.695 21.3519 266.695 22.2479Z" fill="white"/>
</svg>
