<svg width="512" height="512" viewBox="0 0 512 512" fill="none" xmlns="http://www.w3.org/2000/svg">
<rect width="512" height="512" rx="116" fill="url(#paint0_linear_123_378)"/>
<mask id="mask0_123_378" style="mask-type:luminance" maskUnits="userSpaceOnUse" x="80" y="80" width="352" height="352">
<path d="M432 80H80V432H432V80Z" fill="white"/>
</mask>
<g mask="url(#mask0_123_378)">
<path d="M245.136 85.2105C222.119 86.6737 200.064 92.5818 179.412 102.852C154.002 115.469 133.542 132.641 116.382 155.721C114.677 157.985 113.302 159.945 113.357 160.055C113.412 160.249 146.027 179.271 146.522 179.409C146.659 179.436 147.677 178.277 148.777 176.814C170.144 148.736 202.154 129.852 236.749 124.966C244.064 123.944 247.501 123.696 255.999 123.696C264.496 123.696 267.934 123.944 275.249 124.966C309.817 129.852 341.552 148.543 363.139 176.703C364.294 178.222 365.339 179.436 365.476 179.409C365.971 179.271 398.586 160.249 398.641 160.055C398.752 159.779 392.371 151.276 389.017 147.273C376.367 132.116 361.599 119.527 344.274 109.119C338.224 105.502 326.674 99.7875 320.211 97.2199C302.502 90.2351 285.177 86.3701 266.174 85.1829C260.976 84.8792 250.416 84.8792 245.136 85.2105Z" fill="white"/>
<path d="M247.475 143.187C240.765 143.684 232.927 145.037 226.327 146.776C223.275 147.604 216.868 149.647 216.208 150.006C216.042 150.117 218.71 150.227 222.12 150.227C229.847 150.282 238.455 151.028 243.68 152.16C244.34 152.298 244.753 151.994 247.09 149.73C248.548 148.322 250.61 146.196 251.655 145.009L253.58 142.883L252.122 142.911C251.297 142.938 249.207 143.077 247.475 143.187Z" fill="white"/>
<path d="M261.609 145.292C260.674 146.479 258.475 149.019 256.742 150.924L253.552 154.402L255.394 154.899C258.777 155.81 265.982 158.35 270.025 160.062C280.475 164.507 292.025 171.436 299.67 177.897L301.1 179.112L301.65 178.449C304.647 174.943 313.365 162.547 314.822 159.814C315.097 159.234 314.959 159.123 312.319 157.633C298.349 149.764 281.602 144.657 265.35 143.304L263.287 143.138L261.609 145.292Z" fill="white"/>
<path d="M200.451 157.201C194.043 160.707 188.461 164.489 182.714 169.21C178.919 172.33 172.126 178.679 172.126 179.122C172.126 179.342 173.776 179.37 177.709 179.232C186.096 178.928 185.079 179.397 188.351 174.566C192.449 168.437 195.694 164.406 201.524 158.112C202.926 156.566 204.053 155.323 203.998 155.323C203.943 155.323 202.349 156.179 200.451 157.201Z" fill="white"/>
<path d="M216.676 158.025C216.676 158.55 220.882 168.019 221.13 168.019C222.175 168.019 236.173 159.516 236.2 158.881C236.2 158.55 229.793 158.053 223.358 157.887C218.792 157.777 216.676 157.804 216.676 158.025Z" fill="white"/>
<path d="M244.175 162.52C239.858 166.054 233.615 170.14 227.647 173.398C225.778 174.419 224.21 175.303 224.155 175.331C224.072 175.413 244.422 222.678 244.642 222.954C244.863 223.203 254.075 218.344 258.475 215.694C272.06 207.521 280.749 200.564 293.482 187.671L296.205 184.938L293.757 183.005C282.895 174.281 269.309 167.159 255.862 163.045C252.534 162.024 246.952 160.533 246.649 160.588C246.567 160.588 245.467 161.471 244.175 162.52Z" fill="white"/>
<path d="M205.895 164.643C201.606 169.336 196.051 176.238 196.051 176.846C196.051 177.398 208.591 173.643 212.605 171.904L213.926 171.352L213.101 169.474C210.378 163.097 209.553 161.247 209.334 161.192C209.223 161.137 207.655 162.683 205.895 164.643Z" fill="white"/>
<path d="M320.488 165.313C317.765 169.814 312.21 177.682 308.497 182.264L306.903 184.225L309.268 186.544C321.258 198.388 331.818 214.953 337.592 230.937C338.088 232.373 338.61 233.698 338.72 233.891C339.16 234.692 350.93 221.219 357.777 212.054C358.932 210.535 359.95 209.127 360.061 208.934C360.28 208.575 357.668 203.412 355.111 199.188C347.217 186.075 337.262 175.031 325.245 166.059C323.431 164.706 321.863 163.602 321.752 163.602C321.615 163.602 321.066 164.375 320.488 165.313Z" fill="white"/>
<path d="M213.238 179.939C206.968 182.341 198.882 184.466 191.072 185.791C190.137 185.958 190.028 186.123 188.021 189.905C180.981 203.13 176.443 218.231 175.013 233.387C174.793 235.734 174.6 238.054 174.6 238.495V239.295L178.395 239.13C194.043 238.357 205.097 236.673 218.297 233.001C224.457 231.29 236.695 226.983 237.382 226.292C237.575 226.099 217.445 179.139 217.005 178.751C216.895 178.669 215.218 179.194 213.238 179.939Z" fill="white"/>
<path d="M163.297 189.599C154.057 202.16 147.402 216.213 143.827 230.817C143.387 232.639 142.92 234.572 142.837 235.124L142.645 236.145L145.092 236.587C150.675 237.581 158.155 238.492 163.82 238.851C166.35 239.017 166.9 238.961 166.9 238.658C166.9 237.333 167.56 231.01 168.027 227.504C169.76 214.694 173.885 201.166 179.44 190.04L180.925 187.058H174.792C171.41 187.058 167.89 186.976 167.01 186.893L165.387 186.727L163.297 189.599Z" fill="white"/>
<path d="M298.13 193.971C285.425 207.334 269.832 218.901 252.37 227.929L247.805 230.276L258.778 255.675C264.801 269.645 269.915 281.488 270.162 281.986L270.575 282.868L277.093 279.583C297.387 269.314 314.437 257.442 330.718 242.285L332.698 240.435L331.625 237.288C326.978 223.291 319.58 210.066 310.312 199.052C307.975 196.263 302.228 190.106 301.98 190.106C301.87 190.106 300.138 191.846 298.13 193.971Z" fill="white"/>
<path d="M93.9155 196.864C88.0029 212.38 84.5104 228.088 82.9704 245.868C82.2279 254.537 82.5854 269.694 83.7404 279.688C88.4154 320.05 108.105 358.839 137.805 386.31C165.36 411.819 198.14 427.086 235.321 431.807L236.751 432L236.696 412.454L236.613 392.935L232.763 392.273C209.993 388.407 188.13 378.22 169.513 362.815C165.553 359.558 155.818 349.812 152.628 345.947C134.423 323.86 124.138 298.819 121.498 270.163C121.058 265.387 121.058 252.632 121.498 247.8C122.46 237.255 124.523 226.901 127.548 217.46C128.153 215.554 128.593 213.926 128.51 213.815C128.455 213.705 127.878 213.319 127.218 212.959C125.155 211.773 96.6654 195.291 95.7854 194.766L94.9329 194.241L93.9155 196.864Z" fill="white"/>
<path d="M400.431 203.904C391.301 209.178 383.711 213.623 383.573 213.76C383.408 213.926 383.545 214.644 383.875 215.665C386.901 224.335 389.321 235.847 390.365 246.448C390.915 251.997 390.998 264.807 390.502 270.163C387.533 302.409 374.581 330.762 352.387 353.511C332.422 373.969 306.683 387.607 279.238 392.273L275.388 392.935L275.305 412.454L275.25 432L276.681 431.807C307.81 427.859 336.053 416.402 360.501 397.822C397.213 369.91 421.193 329.216 427.711 283.691C429.003 274.801 429.36 269.418 429.36 258.982C429.36 243.687 428.013 232.12 424.575 217.847C422.87 210.751 419.433 199.846 417.507 195.429L417.013 194.297L400.431 203.904Z" fill="white"/>
<path d="M359.509 222.323C354.283 228.866 350.159 233.587 345.209 238.694L341.304 242.698L342.074 246.065C343.999 254.486 344.824 261.36 345.016 270.582C345.182 278.311 344.906 283.585 343.972 290.321C343.504 293.772 341.937 301.778 341.359 303.821C341.194 304.401 341.469 304.263 343.339 302.883C349.857 298.079 356.786 292.419 363.662 286.29C369.767 280.852 369.519 281.155 370.014 278.422C372.709 262.823 372.021 245.652 368.034 230.191C366.961 225.995 364.459 218.237 363.963 217.547C363.689 217.188 362.974 217.961 359.509 222.323Z" fill="white"/>
<path d="M236.888 234.845C229.215 238.019 217.583 241.497 208.287 243.375C198.553 245.363 191.017 246.219 178.12 246.853L174.6 247.019V249.173C174.6 252.127 175.315 258.918 176.112 263.749C177.845 273.964 181.173 284.373 185.875 294.339C187.608 298.01 190.412 303.173 190.825 303.422C191.183 303.642 196.572 303.146 203.2 302.291C222.203 299.861 239.885 295.278 258.338 288.044C261.061 286.968 263.315 286.057 263.37 286.002C263.59 285.836 240.738 233.437 240.463 233.464C240.325 233.492 238.703 234.099 236.888 234.845Z" fill="white"/>
<path d="M141.216 244.652C140.418 248.792 140.116 262.983 140.748 269.195C141.766 279.63 143.993 289.514 147.376 298.818C148.531 301.965 148.943 302.766 149.411 302.876C149.741 302.959 152.161 303.207 154.801 303.456C159.476 303.871 182.025 304.367 182.025 304.036C182.025 303.953 180.926 301.634 179.551 298.846C172.538 284.545 168.523 270.023 167.176 254.01C167.038 252.188 166.901 249.786 166.901 248.682V246.694H165.608C161.896 246.694 153.673 245.755 142.398 244.016C141.463 243.878 141.381 243.934 141.216 244.652Z" fill="white"/>
<path d="M330.799 252.553C318.892 263.238 304.014 273.756 288.861 282.176C285.424 284.082 274.836 289.493 273.929 289.797C273.681 289.879 276.487 296.616 282.839 311.303C287.927 323.063 292.134 332.754 292.189 332.809C292.355 332.975 293.757 332.34 299.862 329.358C309.431 324.664 320.157 318.591 328.572 313.125L331.239 311.386L332.119 308.514C335.667 296.837 337.069 288.085 337.316 276.158C337.51 266.523 336.904 258.793 335.337 251.311C335.117 250.207 334.924 249.296 334.924 249.24C334.924 248.937 334.017 249.682 330.799 252.553Z" fill="white"/>
<path d="M263.7 294.209C244.615 302.215 222.395 307.93 200.615 310.442C198.085 310.746 195.94 311.05 195.858 311.105C195.775 311.188 196.683 312.541 197.865 314.087C208.783 328.553 222.78 340.065 239.335 348.182L243.57 350.281L246.843 349.397C257.761 346.498 270.107 342.329 281.025 337.857C283.72 336.753 284.985 336.09 284.93 335.841C284.792 335.152 266.587 293.077 266.45 293.105C266.367 293.105 265.13 293.601 263.7 294.209Z" fill="white"/>
<path d="M363.471 296.729C357.833 301.615 348.786 308.6 341.471 313.735L337.456 316.551L335.999 320.222C330.389 334.275 321.066 348.686 310.479 359.674C308.911 361.33 307.728 362.655 307.839 362.655C308.141 362.655 311.798 360.64 315.813 358.211C331.049 349.1 344.413 335.903 353.955 320.553C356.761 316.081 360.639 308.572 362.729 303.574C364.103 300.234 366.056 294.74 365.863 294.74C365.808 294.74 364.736 295.624 363.471 296.729Z" fill="white"/>
<path d="M153.15 312.092C153.48 312.754 154.662 314.88 155.79 316.868C164.81 332.631 177.543 346.132 192.833 356.126L196.05 358.251L200.505 357.81C209.773 356.899 218.737 355.602 228.17 353.779C230.013 353.42 231.525 353.062 231.525 352.979C231.525 352.896 230.122 352.04 228.445 351.073C219.067 345.718 210.405 339.037 202.375 330.92C196.82 325.315 192.695 320.319 188.295 313.941L186.782 311.76L176.085 311.815C166.487 311.843 160.602 311.677 154.58 311.125L152.545 310.932L153.15 312.092Z" fill="white"/>
<path d="M323.376 325.437C318.289 328.501 310.754 332.56 303.494 336.177C299.286 338.274 295.711 340.013 295.574 340.069C295.353 340.152 301.459 354.756 302.421 356.496C302.614 356.827 303.301 356.22 305.584 353.762C312.211 346.64 317.602 339.351 322.056 331.455C324.174 327.729 325.934 324.249 325.797 324.112C325.742 324.056 324.642 324.664 323.376 325.437Z" fill="white"/>
<path d="M284.874 344.623C277.477 347.77 258.089 354.644 256.632 354.644C255.587 354.644 256.852 355.169 259.849 355.97C269.722 358.675 281.079 360.166 291.557 360.166C294.802 360.166 295.352 360.111 295.27 359.752C295.049 358.648 288.285 343.325 288.037 343.353C287.9 343.38 286.47 343.933 284.874 344.623Z" fill="white"/>
<path d="M239.912 359.118C231.717 361.023 220.029 363.176 212.329 364.197C210.322 364.446 208.781 364.75 208.892 364.86C209.552 365.467 218.71 368.891 222.972 370.134C234.604 373.529 244.037 374.882 256.137 374.882C265.597 374.882 272.692 374.136 281.41 372.149C284.902 371.375 291.942 369.333 294.499 368.366L296.287 367.704L288.175 367.538C278.907 367.373 273.709 366.82 265.459 365.136C259.217 363.839 251.159 361.464 245.522 359.256L243.212 358.344L239.912 359.118Z" fill="white"/>
</g>
<defs>
<linearGradient id="paint0_linear_123_378" x1="-39.5" y1="-45.5" x2="669" y2="632" gradientUnits="userSpaceOnUse">
<stop stop-color="#AE4564"/>
<stop offset="0.485046" stop-color="#826EC5"/>
</linearGradient>
</defs>
</svg>
