<svg width="282" height="37" viewBox="0 0 282 37" fill="none" xmlns="http://www.w3.org/2000/svg">
<mask id="mask0_46_86" style="mask-type:luminance" maskUnits="userSpaceOnUse" x="0" y="0" width="37" height="37">
<path d="M37 0H0V37H37V0Z" fill="white"/>
</mask>
<g mask="url(#mask0_46_86)">
<path d="M17.3581 0.547671C14.9387 0.701475 12.6204 1.32249 10.4496 2.40202C7.77861 3.72822 5.62799 5.53325 3.82424 7.95928C3.64502 8.19724 3.50049 8.40329 3.50627 8.41489C3.51205 8.4352 6.94033 10.4347 6.99236 10.4492C7.00682 10.4521 7.11377 10.3302 7.2294 10.1764C9.47541 7.22509 12.8401 5.24014 16.4765 4.72649C17.2454 4.61912 17.6067 4.593 18.4999 4.593C19.3931 4.593 19.7545 4.61912 20.5234 4.72649C24.1569 5.24014 27.4927 7.20477 29.7618 10.1648C29.8832 10.3244 29.9931 10.4521 30.0075 10.4492C30.0595 10.4347 33.4878 8.4352 33.4936 8.41489C33.5052 8.38587 32.8345 7.49206 32.4819 7.07128C31.1522 5.4781 29.5999 4.15481 27.7788 3.06077C27.1429 2.68061 25.9288 2.0799 25.2495 1.81002C23.388 1.07582 21.5669 0.669554 19.5695 0.54477C19.0231 0.512848 17.9131 0.512848 17.3581 0.547671Z" fill="white"/>
<path d="M17.6039 6.64178C16.8986 6.69401 16.0748 6.83621 15.381 7.01903C15.0602 7.10609 14.3867 7.32084 14.3173 7.35856C14.2999 7.37017 14.5803 7.38178 14.9388 7.38178C15.751 7.38758 16.6558 7.46594 17.205 7.58492C17.2744 7.59943 17.3178 7.5675 17.5635 7.32954C17.7167 7.18154 17.9335 6.95809 18.0433 6.83331L18.2457 6.60986L18.0924 6.61276C18.0057 6.61566 17.786 6.63017 17.6039 6.64178Z" fill="white"/>
<path d="M19.0896 6.86308C18.9913 6.98786 18.7601 7.25484 18.578 7.45508L18.2427 7.82072L18.4363 7.87296C18.7919 7.96872 19.5492 8.2357 19.9742 8.41563C21.0726 8.88284 22.2867 9.61123 23.0903 10.2903L23.2406 10.418L23.2984 10.3483C23.6135 9.97978 24.5298 8.6768 24.683 8.38951C24.7119 8.32857 24.6974 8.31696 24.4199 8.16025C22.9515 7.33319 21.1911 6.79633 19.4828 6.65414L19.266 6.63672L19.0896 6.86308Z" fill="white"/>
<path d="M12.6609 8.11481C11.9874 8.48336 11.4006 8.88093 10.7965 9.37716C10.3976 9.70508 9.68359 10.3725 9.68359 10.419C9.68359 10.4422 9.85703 10.4451 10.2704 10.4306C11.152 10.3987 11.0451 10.448 11.3891 9.94014C11.8198 9.29591 12.1609 8.87222 12.7737 8.21057C12.9211 8.04806 13.0396 7.91748 13.0338 7.91748C13.028 7.91748 12.8604 8.00744 12.6609 8.11481Z" fill="white"/>
<path d="M14.3665 8.20143C14.3665 8.25657 14.8087 9.25195 14.8347 9.25195C14.9446 9.25195 16.4159 8.35814 16.4188 8.29139C16.4188 8.25657 15.7453 8.20434 15.0689 8.18692C14.589 8.17532 14.3665 8.17822 14.3665 8.20143Z" fill="white"/>
<path d="M17.257 8.674C16.8032 9.04545 16.147 9.47494 15.5197 9.81737C15.3232 9.92474 15.1584 10.0176 15.1526 10.0205C15.1439 10.0292 17.283 14.9974 17.3061 15.0264C17.3293 15.0525 18.2976 14.5418 18.7601 14.2632C20.1881 13.4042 21.1015 12.6729 22.4399 11.3177L22.7261 11.0304L22.4688 10.8272C21.327 9.91023 19.899 9.16153 18.4855 8.72913C18.1357 8.62176 17.5489 8.46505 17.5171 8.47086C17.5085 8.47086 17.3928 8.56372 17.257 8.674Z" fill="white"/>
<path d="M13.2333 8.89713C12.7824 9.39046 12.1985 10.1159 12.1985 10.1798C12.1985 10.2378 13.5166 9.84317 13.9386 9.66035L14.0774 9.60231L13.9907 9.40497C13.7045 8.73462 13.6178 8.54019 13.5947 8.53439C13.5831 8.52858 13.4183 8.69109 13.2333 8.89713Z" fill="white"/>
<path d="M25.2786 8.96764C24.9924 9.44066 24.4085 10.2677 24.0182 10.7494L23.8506 10.9555L24.0992 11.1992C25.3595 12.4442 26.4695 14.1854 27.0765 15.8656C27.1286 16.0165 27.1835 16.1558 27.195 16.1761C27.2413 16.2603 28.4785 14.8441 29.1982 13.8807C29.3196 13.721 29.4266 13.573 29.4382 13.5527C29.4613 13.515 29.1867 12.9723 28.9179 12.5283C28.0882 11.1499 27.0418 9.98913 25.7786 9.04599C25.5879 8.9038 25.4231 8.78772 25.4115 8.78772C25.3971 8.78772 25.3393 8.86897 25.2786 8.96764Z" fill="white"/>
<path d="M14.0051 10.5049C13.346 10.7574 12.4961 10.9808 11.6752 11.1201C11.5769 11.1376 11.5654 11.155 11.3544 11.5525C10.6144 12.9426 10.1374 14.5299 9.98707 16.1231C9.96395 16.3698 9.94373 16.6136 9.94373 16.66V16.7441L10.3426 16.7267C11.9874 16.6455 13.1494 16.4685 14.5369 16.0825C15.1844 15.9026 16.4708 15.4499 16.543 15.3773C16.5633 15.357 14.4473 10.4208 14.4011 10.3801C14.3895 10.3714 14.2132 10.4266 14.0051 10.5049Z" fill="white"/>
<path d="M8.7557 11.5203C7.78445 12.8407 7.08492 14.3178 6.70914 15.8529C6.66289 16.0444 6.61375 16.2476 6.60507 16.3056L6.58484 16.413L6.8421 16.4594C7.4289 16.5639 8.21515 16.6597 8.81062 16.6974C9.07656 16.7148 9.13437 16.709 9.13437 16.6771C9.13437 16.5378 9.20375 15.8732 9.25289 15.5047C9.435 14.1582 9.86859 12.7362 10.4525 11.5667L10.6086 11.2533H9.96398C9.60843 11.2533 9.23843 11.2446 9.14593 11.2359L8.97539 11.2185L8.7557 11.5203Z" fill="white"/>
<path d="M22.9284 11.9799C21.5929 13.3845 19.9539 14.6004 18.1184 15.5493L17.6385 15.796L18.7919 18.4658C19.425 19.9342 19.9626 21.1791 19.9886 21.2314L20.032 21.3242L20.7171 20.9789C22.8503 19.8994 24.6425 18.6515 26.3538 17.0583L26.5619 16.8639L26.4492 16.5331C25.9607 15.0618 25.1831 13.6717 24.2089 12.5139C23.9632 12.2208 23.3591 11.5736 23.3331 11.5736C23.3215 11.5736 23.1394 11.7565 22.9284 11.9799Z" fill="white"/>
<path d="M1.46266 12.284C0.841174 13.9149 0.474065 15.5661 0.31219 17.435C0.234143 18.3462 0.271721 19.9394 0.393127 20.9899C0.884534 25.2325 2.95422 29.3098 6.0761 32.1973C8.9725 34.8787 12.4181 36.4835 16.3263 36.9797L16.4766 37L16.4708 34.9454L16.4621 32.8937L16.0574 32.8241C13.664 32.4178 11.3659 31.347 9.40899 29.7277C8.99274 29.3853 7.96946 28.3609 7.63414 27.9546C5.72055 25.633 4.63946 23.0009 4.36196 19.9887C4.31571 19.4867 4.31571 18.146 4.36196 17.6381C4.46313 16.5296 4.67993 15.4413 4.99789 14.4489C5.06149 14.2486 5.10774 14.0774 5.09907 14.0658C5.09328 14.0542 5.03258 14.0136 4.96321 13.9758C4.74641 13.8511 1.75172 12.1186 1.65922 12.0635L1.56961 12.0083L1.46266 12.284Z" fill="white"/>
<path d="M33.6816 13.024C32.7219 13.5783 31.9241 14.0455 31.9096 14.06C31.8923 14.0774 31.9067 14.1529 31.9414 14.2602C32.2594 15.1715 32.5138 16.3816 32.6236 17.4959C32.6814 18.0792 32.6901 19.4257 32.638 19.9887C32.3259 23.3782 30.9644 26.3585 28.6316 28.7497C26.533 30.9001 23.8274 32.3336 20.9426 32.8241L20.5379 32.8937L20.5292 34.9454L20.5234 37L20.6738 36.9797C23.9459 36.5647 26.9146 35.3604 29.4844 33.4074C33.3434 30.4735 35.864 26.196 36.5491 21.4107C36.6849 20.4762 36.7225 19.9104 36.7225 18.8134C36.7225 17.2057 36.5809 15.9898 36.2195 14.4895C36.0403 13.7437 35.679 12.5974 35.4766 12.1331L35.4246 12.0141L33.6816 13.024Z" fill="white"/>
<path d="M29.3803 14.96C28.831 15.6478 28.3975 16.144 27.8771 16.6809L27.4667 17.1017L27.5476 17.4557C27.75 18.3408 27.8367 19.0634 27.8569 20.0327C27.8743 20.8452 27.8453 21.3995 27.7471 22.1076C27.6979 22.4703 27.5332 23.3119 27.4725 23.5266C27.4551 23.5876 27.484 23.5731 27.6806 23.428C28.3657 22.923 29.0941 22.3281 29.8168 21.6839C30.4585 21.1122 30.4325 21.1441 30.4845 20.8568C30.7678 19.2172 30.6955 17.4122 30.2764 15.7871C30.1636 15.346 29.9006 14.5306 29.8485 14.458C29.8196 14.4203 29.7445 14.5015 29.3803 14.96Z" fill="white"/>
<path d="M16.491 16.2763C15.6845 16.61 14.4618 16.9756 13.4847 17.173C12.4615 17.3819 11.6694 17.4719 10.3137 17.5386L9.94373 17.556V17.7824C9.94373 18.0929 10.0189 18.8068 10.1027 19.3146C10.2848 20.3883 10.6346 21.4824 11.1289 22.53C11.311 22.9159 11.6058 23.4586 11.6492 23.4847C11.6868 23.5079 12.2533 23.4557 12.95 23.3658C14.9474 23.1104 16.8061 22.6287 18.7457 21.8683C19.0319 21.7552 19.2689 21.6594 19.2747 21.6536C19.2978 21.6362 16.8957 16.1283 16.8668 16.1312C16.8523 16.1341 16.6818 16.1979 16.491 16.2763Z" fill="white"/>
<path d="M6.43453 17.3071C6.3507 17.7423 6.3189 19.234 6.38539 19.8869C6.49234 20.9838 6.72648 22.0227 7.08203 23.0007C7.20343 23.3315 7.24679 23.4157 7.29593 23.4273C7.33062 23.436 7.585 23.4621 7.8625 23.4882C8.3539 23.5318 10.7242 23.584 10.7242 23.5492C10.7242 23.5405 10.6086 23.2967 10.4641 23.0036C9.72695 21.5004 9.30492 19.974 9.16328 18.2908C9.14882 18.0993 9.13437 17.8468 9.13437 17.7307V17.5218H8.99851C8.60828 17.5218 7.74398 17.4231 6.55882 17.2403C6.46054 17.2258 6.45187 17.2316 6.43453 17.3071Z" fill="white"/>
<path d="M26.3624 18.1376C25.1108 19.2607 23.547 20.3663 21.9542 21.2514C21.5929 21.4517 20.48 22.0205 20.3846 22.0524C20.3586 22.0611 20.6535 22.7692 21.3212 24.313C21.856 25.5492 22.2982 26.5678 22.304 26.5736C22.3214 26.591 22.4688 26.5243 23.1105 26.2109C24.1164 25.7175 25.2438 25.0791 26.1283 24.5045L26.4087 24.3217L26.5012 24.0199C26.8741 22.7924 27.0215 21.8725 27.0475 20.6188C27.0678 19.606 27.0042 18.7935 26.8394 18.007C26.8163 17.891 26.796 17.7952 26.796 17.7894C26.796 17.7575 26.7007 17.8358 26.3624 18.1376Z" fill="white"/>
<path d="M19.3093 22.5163C17.3032 23.3578 14.9676 23.9585 12.6782 24.2226C12.4123 24.2545 12.1868 24.2865 12.1782 24.2923C12.1695 24.301 12.2649 24.4432 12.3892 24.6057C13.5368 26.1263 15.0081 27.3364 16.7482 28.1896L17.1934 28.4102L17.5374 28.3173C18.685 28.0126 19.9828 27.5744 21.1304 27.1043C21.4137 26.9882 21.5467 26.9185 21.5409 26.8924C21.5264 26.8199 19.6128 22.3973 19.5984 22.4002C19.5897 22.4002 19.4596 22.4524 19.3093 22.5163Z" fill="white"/>
<path d="M29.7966 22.7811C29.204 23.2947 28.253 24.0289 27.4841 24.5687L27.0621 24.8647L26.9089 25.2506C26.3192 26.7277 25.3393 28.2425 24.2264 29.3975C24.0616 29.5716 23.9373 29.7109 23.9489 29.7109C23.9807 29.7109 24.3651 29.4991 24.7871 29.2437C26.3886 28.2861 27.7934 26.8989 28.7964 25.2854C29.0913 24.8153 29.4989 24.026 29.7186 23.5007C29.8631 23.1496 30.0683 22.5721 30.0481 22.5721C30.0423 22.5721 29.9296 22.665 29.7966 22.7811Z" fill="white"/>
<path d="M7.68908 24.396C7.72377 24.4656 7.84807 24.6891 7.96658 24.898C8.91471 26.555 10.2531 27.9741 11.8603 29.0246L12.1985 29.248L12.6667 29.2016C13.6409 29.1059 14.5832 28.9695 15.5747 28.7779C15.7684 28.7402 15.9274 28.7025 15.9274 28.6938C15.9274 28.6851 15.7799 28.5951 15.6036 28.4935C14.6179 27.9306 13.7074 27.2283 12.8633 26.3751C12.2794 25.786 11.8458 25.2608 11.3833 24.5904L11.2243 24.3611L10.0999 24.3669C9.09104 24.3699 8.47244 24.3524 7.83939 24.2944L7.62549 24.2741L7.68908 24.396Z" fill="white"/>
<path d="M25.5821 25.7988C25.0473 26.1209 24.2553 26.5475 23.4922 26.9277C23.0499 27.1482 22.6741 27.331 22.6597 27.3368C22.6365 27.3456 23.2783 28.8807 23.3794 29.0635C23.3997 29.0983 23.4719 29.0345 23.7119 28.7762C24.4085 28.0275 24.9751 27.2614 25.4433 26.4314C25.6659 26.0397 25.8509 25.674 25.8365 25.6595C25.8307 25.6537 25.7151 25.7176 25.5821 25.7988Z" fill="white"/>
<path d="M21.5351 27.8154C20.7575 28.1462 18.7196 28.8688 18.5664 28.8688C18.4566 28.8688 18.5896 28.924 18.9046 29.0081C19.9424 29.2925 21.1362 29.4492 22.2375 29.4492C22.5786 29.4492 22.6364 29.4434 22.6278 29.4057C22.6046 29.2896 21.8936 27.679 21.8675 27.6819C21.8531 27.6848 21.7028 27.7429 21.5351 27.8154Z" fill="white"/>
<path d="M16.8089 29.3391C15.9475 29.5393 14.719 29.7657 13.9096 29.873C13.6986 29.8992 13.5367 29.9311 13.5483 29.9427C13.6177 30.0065 14.5803 30.3664 15.0283 30.497C16.251 30.8539 17.2425 30.9961 18.5144 30.9961C19.5088 30.9961 20.2546 30.9177 21.1709 30.7088C21.538 30.6275 22.278 30.4128 22.5468 30.3112L22.7347 30.2416L21.882 30.2242C20.9078 30.2068 20.3615 30.1487 19.4943 29.9717C18.8382 29.8353 17.9912 29.5857 17.3986 29.3536L17.1558 29.2578L16.8089 29.3391Z" fill="white"/>
</g>
<path d="M61.56 25.992H69.496V29H57.432L61.56 25.992ZM44.888 17.448C44.888 15.848 45.1867 14.344 45.784 12.936C46.4027 11.5067 47.256 10.248 48.344 9.15999C49.432 8.05066 50.68 7.18666 52.088 6.56799C53.5173 5.92799 55.0533 5.60799 56.696 5.60799C58.3173 5.60799 59.832 5.92799 61.24 6.56799C62.6693 7.18666 63.928 8.05066 65.016 9.15999C66.1253 10.248 66.9893 11.5067 67.608 12.936C68.2267 14.344 68.536 15.848 68.536 17.448C68.536 19.0907 68.2267 20.6267 67.608 22.056C66.9893 23.4853 66.1253 24.744 65.016 25.832C63.928 26.8987 62.6693 27.7413 61.24 28.36C59.832 28.9573 58.3173 29.256 56.696 29.256C55.0533 29.256 53.5173 28.9573 52.088 28.36C50.68 27.7627 49.432 26.9307 48.344 25.864C47.256 24.7973 46.4027 23.5493 45.784 22.12C45.1867 20.6907 44.888 19.1333 44.888 17.448ZM48.088 17.48C48.088 18.696 48.312 19.8373 48.76 20.904C49.208 21.9493 49.8267 22.8773 50.616 23.688C51.4053 24.4987 52.3227 25.128 53.368 25.576C54.4133 26.024 55.544 26.248 56.76 26.248C57.9547 26.248 59.0747 26.024 60.12 25.576C61.1653 25.128 62.072 24.4987 62.84 23.688C63.608 22.8773 64.216 21.9493 64.664 20.904C65.112 19.8373 65.336 18.6853 65.336 17.448C65.336 16.2533 65.112 15.1227 64.664 14.056C64.216 12.9893 63.5973 12.0613 62.808 11.272C62.0187 10.4613 61.1013 9.83199 60.056 9.38399C59.0107 8.91466 57.8907 8.68 56.696 8.68C55.48 8.68 54.3493 8.91466 53.304 9.38399C52.2587 9.83199 51.3413 10.4613 50.552 11.272C49.7627 12.0827 49.1547 13.0213 48.728 14.088C48.3013 15.1547 48.088 16.2853 48.088 17.48ZM73.263 17.448C73.263 15.848 73.5617 14.344 74.159 12.936C74.7777 11.5067 75.631 10.248 76.719 9.15999C77.807 8.05066 79.055 7.18666 80.463 6.56799C81.8923 5.92799 83.4283 5.60799 85.071 5.60799C86.6923 5.60799 88.207 5.92799 89.615 6.56799C91.0443 7.18666 92.303 8.05066 93.391 9.15999C94.5003 10.248 95.3643 11.5067 95.983 12.936C96.6017 14.344 96.911 15.848 96.911 17.448C96.911 19.0907 96.6017 20.6267 95.983 22.056C95.3643 23.4853 94.5003 24.744 93.391 25.832C92.303 26.8987 91.0443 27.7413 89.615 28.36C88.207 28.9573 86.6923 29.256 85.071 29.256C83.4283 29.256 81.8923 28.9573 80.463 28.36C79.055 27.7627 77.807 26.9307 76.719 25.864C75.631 24.7973 74.7777 23.5493 74.159 22.12C73.5617 20.6907 73.263 19.1333 73.263 17.448ZM76.463 17.48C76.463 18.696 76.687 19.8373 77.135 20.904C77.583 21.9493 78.2017 22.8773 78.991 23.688C79.7803 24.4987 80.6977 25.1387 81.743 25.608C82.7883 26.056 83.919 26.28 85.135 26.28C86.3297 26.28 87.4497 26.056 88.495 25.608C89.5403 25.1387 90.447 24.4987 91.215 23.688C91.983 22.8773 92.591 21.9493 93.039 20.904C93.487 19.8373 93.711 18.6853 93.711 17.448C93.711 16.232 93.487 15.0907 93.039 14.024C92.591 12.936 91.9723 11.9867 91.183 11.176C90.3937 10.3653 89.4763 9.73599 88.431 9.28799C87.3857 8.81867 86.2657 8.58399 85.071 8.58399C83.855 8.58399 82.7243 8.81867 81.679 9.28799C80.6337 9.75732 79.7163 10.3973 78.927 11.208C78.1377 12.0187 77.5297 12.968 77.103 14.056C76.6763 15.1227 76.463 16.264 76.463 17.48ZM102.141 29V5.12799H102.173L114.301 22.344L112.989 22.088L125.085 5.12799H125.149V29H122.077V12.168L122.269 13.736L113.533 26.088H113.469L104.605 13.736L105.149 12.296V29H102.141ZM131.797 5.86399H146.837V8.83999H134.901V15.88H145.557V18.856H134.901V26.024H147.285V29H131.797V5.86399ZM150.752 5.86399H154.688L169.76 29H165.792L150.752 5.86399ZM150.432 29L158.464 16.424L159.968 19.432L154.272 29H150.432ZM160.064 15.304L165.696 5.86399H169.44L161.728 17.896L160.064 15.304ZM179.401 9.928H182.377V15.816H186.025V18.152H182.377V29H179.401V18.152H176.969V15.816H179.401V9.928ZM192.277 15.752L192.565 19.592L192.405 19.08C192.746 18.2693 193.237 17.5867 193.877 17.032C194.538 16.456 195.221 16.0187 195.925 15.72C196.65 15.4 197.279 15.24 197.813 15.24L197.653 18.184C196.65 18.12 195.765 18.312 194.997 18.76C194.25 19.208 193.653 19.8053 193.205 20.552C192.778 21.2987 192.565 22.0987 192.565 22.952V29H189.621V15.752H192.277ZM206.843 29.32C205.606 29.32 204.475 29.0533 203.451 28.52C202.449 27.9867 201.649 27.208 201.051 26.184C200.475 25.1387 200.187 23.8693 200.187 22.376C200.187 20.904 200.497 19.6347 201.115 18.568C201.734 17.48 202.555 16.648 203.579 16.072C204.625 15.496 205.766 15.208 207.003 15.208C208.241 15.208 209.286 15.496 210.139 16.072C210.993 16.6267 211.643 17.288 212.091 18.056L211.899 18.568L212.187 15.752H214.939V29H211.963V25.544L212.283 26.312C212.198 26.5253 212.006 26.8027 211.707 27.144C211.43 27.464 211.046 27.7947 210.555 28.136C210.086 28.4773 209.542 28.7653 208.923 29C208.305 29.2133 207.611 29.32 206.843 29.32ZM207.643 26.856C208.39 26.856 209.062 26.7173 209.659 26.44C210.257 26.1627 210.747 25.7787 211.131 25.288C211.537 24.776 211.814 24.168 211.963 23.464V20.872C211.793 20.232 211.494 19.6773 211.067 19.208C210.641 18.7173 210.129 18.344 209.531 18.088C208.934 17.8107 208.273 17.672 207.547 17.672C206.758 17.672 206.033 17.864 205.371 18.248C204.71 18.632 204.177 19.1653 203.771 19.848C203.387 20.5307 203.195 21.3307 203.195 22.248C203.195 23.1013 203.398 23.88 203.803 24.584C204.209 25.288 204.753 25.8427 205.435 26.248C206.118 26.6533 206.854 26.856 207.643 26.856ZM225.465 29.32C224.249 29.32 223.14 29.032 222.137 28.456C221.156 27.8587 220.377 27.0267 219.801 25.96C219.225 24.872 218.937 23.624 218.937 22.216C218.937 20.744 219.236 19.4853 219.833 18.44C220.452 17.3947 221.284 16.5947 222.329 16.04C223.375 15.4853 224.548 15.208 225.849 15.208C226.895 15.208 227.887 15.432 228.825 15.88C229.785 16.328 230.532 16.9467 231.065 17.736L230.937 18.792V4.23199H233.881V29H230.905V25.704L231.225 26.536C230.607 27.3467 229.807 28.0187 228.825 28.552C227.844 29.064 226.724 29.32 225.465 29.32ZM226.393 26.792C227.183 26.792 227.887 26.6533 228.505 26.376C229.124 26.0773 229.636 25.672 230.041 25.16C230.447 24.648 230.735 24.04 230.905 23.336V20.84C230.735 20.2 230.425 19.6453 229.977 19.176C229.551 18.6853 229.028 18.3013 228.409 18.024C227.812 17.7253 227.14 17.576 226.393 17.576C225.583 17.576 224.836 17.7787 224.153 18.184C223.492 18.568 222.959 19.1013 222.553 19.784C222.148 20.4667 221.945 21.256 221.945 22.152C221.945 23.0267 222.148 23.816 222.553 24.52C222.959 25.2027 223.503 25.7573 224.185 26.184C224.868 26.5893 225.604 26.792 226.393 26.792ZM239.058 15.752H242.034V29H239.058V15.752ZM238.834 10.952C238.834 10.4827 239.016 10.088 239.378 9.76799C239.762 9.44799 240.178 9.28799 240.626 9.28799C241.074 9.28799 241.469 9.44799 241.81 9.76799C242.173 10.088 242.354 10.4827 242.354 10.952C242.354 11.4427 242.173 11.848 241.81 12.168C241.469 12.4667 241.074 12.616 240.626 12.616C240.178 12.616 239.762 12.456 239.378 12.136C239.016 11.816 238.834 11.4213 238.834 10.952ZM249.839 15.752L250.095 18.984L249.967 18.472C250.394 17.4907 251.087 16.712 252.047 16.136C253.007 15.5387 254.117 15.24 255.375 15.24C256.634 15.24 257.658 15.6133 258.447 16.36C259.258 17.0853 259.674 18.0347 259.695 19.208V29H256.687V20.264C256.666 19.5387 256.453 18.952 256.047 18.504C255.663 18.0347 255.055 17.8 254.223 17.8C253.455 17.8 252.762 18.0133 252.143 18.44C251.525 18.8667 251.034 19.4533 250.671 20.2C250.33 20.9467 250.159 21.8107 250.159 22.792V29H247.183V15.752H249.839ZM271.239 35.56C270.257 35.56 269.393 35.4427 268.647 35.208C267.9 34.9947 267.217 34.6853 266.599 34.28C266.001 33.8747 265.425 33.416 264.871 32.904L266.599 30.888C267.303 31.5493 268.017 32.0613 268.743 32.424C269.468 32.7867 270.279 32.968 271.175 32.968C272.177 32.968 273.02 32.7973 273.703 32.456C274.407 32.136 274.94 31.6773 275.303 31.08C275.665 30.504 275.847 29.832 275.847 29.064L275.879 25.48L276.135 26.056C275.751 26.9733 275.057 27.752 274.055 28.392C273.052 29.0107 271.836 29.32 270.407 29.32C269.191 29.32 268.071 29.0107 267.047 28.392C266.044 27.7733 265.233 26.9413 264.615 25.896C264.017 24.8293 263.719 23.6347 263.719 22.312C263.719 20.9253 264.039 19.7093 264.679 18.664C265.319 17.5973 266.161 16.7547 267.207 16.136C268.252 15.5173 269.393 15.208 270.631 15.208C271.804 15.208 272.871 15.4533 273.831 15.944C274.812 16.4133 275.527 17.0213 275.975 17.768L275.815 18.312L276.135 15.752H278.855V29.096C278.855 30.2907 278.545 31.3787 277.927 32.36C277.308 33.3413 276.433 34.12 275.303 34.696C274.172 35.272 272.817 35.56 271.239 35.56ZM266.695 22.248C266.695 23.1013 266.897 23.88 267.303 24.584C267.708 25.288 268.252 25.8427 268.935 26.248C269.639 26.6533 270.417 26.856 271.271 26.856C272.06 26.856 272.764 26.7173 273.383 26.44C274.023 26.1413 274.556 25.7467 274.983 25.256C275.409 24.744 275.708 24.1573 275.879 23.496V20.872C275.687 20.232 275.367 19.6773 274.919 19.208C274.471 18.7173 273.937 18.344 273.319 18.088C272.7 17.8107 272.017 17.672 271.271 17.672C270.417 17.672 269.639 17.864 268.935 18.248C268.252 18.632 267.708 19.176 267.303 19.88C266.897 20.5627 266.695 21.352 266.695 22.248Z" fill="white"/>
</svg>
