<svg width="25" height="15" viewBox="0 0 25 15" fill="none" xmlns="http://www.w3.org/2000/svg">
<path d="M0 14.7763V0H5.49592C6.62182 0 7.56643 0.19721 8.32976 0.59163C9.09785 0.986051 9.6775 1.5392 10.0687 2.25108C10.4647 2.95815 10.6627 3.78307 10.6627 4.72583C10.6627 5.6734 10.4623 6.49591 10.0615 7.19336C9.66557 7.886 9.08115 8.42232 8.30829 8.80231C7.53542 9.17749 6.58604 9.36508 5.46014 9.36508H1.54573V7.14286H5.10233C5.7607 7.14286 6.2998 7.05147 6.71962 6.86869C7.13945 6.6811 7.44955 6.40933 7.64992 6.05339C7.85507 5.69264 7.95764 5.25012 7.95764 4.72583C7.95764 4.20154 7.85507 3.75421 7.64992 3.38384C7.44478 3.00866 7.13229 2.72487 6.71247 2.53247C6.29264 2.33526 5.75116 2.23665 5.08802 2.23665H2.65493V14.7763H0ZM7.5712 8.08081L11.1994 14.7763H8.23673L4.67296 8.08081H7.5712Z" fill="white"/>
<path d="M22.3451 0H25V9.65368C25 10.7119 24.7519 11.6426 24.2558 12.4459C23.7644 13.2492 23.0726 13.8769 22.1805 14.329C21.2883 14.7763 20.2459 15 19.0532 15C17.8558 15 16.811 14.7763 15.9188 14.329C15.0267 13.8769 14.335 13.2492 13.8436 12.4459C13.3522 11.6426 13.1065 10.7119 13.1065 9.65368V0H15.7614V9.43001C15.7614 10.0457 15.895 10.594 16.1622 11.075C16.4341 11.556 16.8158 11.9336 17.3071 12.2078C17.7985 12.4772 18.3806 12.6118 19.0532 12.6118C19.7259 12.6118 20.308 12.4772 20.7993 12.2078C21.2955 11.9336 21.6772 11.556 21.9443 11.075C22.2115 10.594 22.3451 10.0457 22.3451 9.43001V0Z" fill="white"/>
</svg>
