<svg width="51" height="51" viewBox="0 0 51 51" fill="none" xmlns="http://www.w3.org/2000/svg">
<rect x="9" y="9" width="32" height="32" fill="white"/>
<path d="M25.5 0C11.4167 0 0 11.4167 0 25.5C0 39.5833 11.4167 51 25.5 51C39.5833 51 51 39.5833 51 25.5C51 11.4167 39.5833 0 25.5 0ZM37.3197 17.3421C36.9359 21.3742 35.2754 31.1591 34.4303 35.6753C34.0729 37.5862 33.369 38.227 32.6877 38.2896C31.2071 38.4259 30.0824 37.311 28.6481 36.3708C26.4038 34.8996 25.1359 33.9838 22.9573 32.5482C20.4397 30.8891 22.0718 29.9776 23.5066 28.4867C23.8821 28.0967 30.4067 22.1621 30.533 21.6237C30.5487 21.5563 30.5638 21.3049 30.4143 21.1729C30.2648 21.0409 30.0452 21.0856 29.8863 21.1215C29.6613 21.1726 26.0759 23.5424 19.1302 28.2309C18.1126 28.9296 17.1909 29.2701 16.3649 29.2523C15.4544 29.2327 13.7031 28.7376 12.401 28.3143C10.8041 27.7952 9.53484 27.5208 9.64538 26.6392C9.70296 26.1799 10.3353 25.7103 11.5425 25.2305C18.9762 21.9917 23.9333 19.8564 26.4135 18.8247C33.4951 15.8791 34.9666 15.3675 35.9257 15.3504C36.1367 15.3469 36.6083 15.3991 36.9138 15.647C37.117 15.8236 37.2466 16.0701 37.2768 16.3376C37.3286 16.6698 37.3429 17.0067 37.3197 17.3421Z" fill="url(#paint0_linear_46_122)"/>
<defs>
<linearGradient id="paint0_linear_46_122" x1="15.5" y1="4" x2="35.5" y2="45.5" gradientUnits="userSpaceOnUse">
<stop stop-color="#7B79D9"/>
<stop offset="1" stop-color="#7B9DE5"/>
</linearGradient>
</defs>
</svg>
