<svg width="26" height="15" viewBox="0 0 26 15" fill="none" xmlns="http://www.w3.org/2000/svg">
<path d="M8.75654 0H11.2729V9.65368C11.2729 10.7119 11.0378 11.6426 10.5675 12.4459C10.1018 13.2492 9.44612 13.8769 8.60054 14.329C7.75495 14.7763 6.76693 15 5.63647 15C4.50149 15 3.51121 14.7763 2.66562 14.329C1.82004 13.8769 1.16437 13.2492 0.698624 12.4459C0.232875 11.6426 0 10.7119 0 9.65368V0H2.5164V9.43001C2.5164 10.0457 2.64301 10.594 2.89624 11.075C3.15398 11.556 3.51573 11.9336 3.98148 12.2078C4.44723 12.4772 4.99889 12.6118 5.63647 12.6118C6.27405 12.6118 6.82571 12.4772 7.29146 12.2078C7.76173 11.9336 8.12348 11.556 8.3767 11.075C8.62993 10.594 8.75654 10.0457 8.75654 9.43001V0Z" fill="white"/>
<path d="M15.792 14.7763H13.106L17.9963 0H21.1029L26 14.7763H23.314L19.6039 3.0303H19.4953L15.792 14.7763ZM15.8801 8.98268H23.2055V11.1328H15.8801V8.98268Z" fill="white"/>
</svg>
