<svg width="78" height="78" viewBox="0 0 78 78" fill="none" xmlns="http://www.w3.org/2000/svg">
<path d="M39 0C49.3434 0 59.2632 4.10892 66.5772 11.4228C73.8911 18.7368 78 28.6566 78 39C78 49.3434 73.8911 59.2632 66.5772 66.5772C59.2632 73.8911 49.3434 78 39 78C28.6566 78 18.7368 73.8911 11.4228 66.5772C4.10892 59.2632 0 49.3434 0 39C0 28.6566 4.10892 18.7368 11.4228 11.4228C18.7368 4.10892 28.6566 0 39 0ZM21.9375 36.5625C21.291 36.5625 20.671 36.8193 20.2139 37.2764C19.7568 37.7335 19.5 38.3535 19.5 39C19.5 39.6465 19.7568 40.2665 20.2139 40.7236C20.671 41.1807 21.291 41.4375 21.9375 41.4375H50.1784L39.7118 51.8993C39.4851 52.1259 39.3053 52.3949 39.1827 52.691C39.06 52.9871 38.9969 53.3045 38.9969 53.625C38.9969 53.9455 39.06 54.2629 39.1827 54.559C39.3053 54.8551 39.4851 55.1241 39.7118 55.3507C39.9384 55.5774 40.2074 55.7572 40.5035 55.8798C40.7996 56.0025 41.117 56.0656 41.4375 56.0656C41.758 56.0656 42.0754 56.0025 42.3715 55.8798C42.6676 55.7572 42.9366 55.5774 43.1632 55.3507L57.7882 40.7257C58.0152 40.4993 58.1953 40.2303 58.3182 39.9342C58.4411 39.6381 58.5044 39.3206 58.5044 39C58.5044 38.6794 58.4411 38.3619 58.3182 38.0658C58.1953 37.7697 58.0152 37.5007 57.7882 37.2743L43.1632 22.6493C42.9366 22.4226 42.6676 22.2428 42.3715 22.1202C42.0754 21.9975 41.758 21.9344 41.4375 21.9344C41.117 21.9344 40.7996 21.9975 40.5035 22.1202C40.2074 22.2428 39.9384 22.4226 39.7118 22.6493C39.4851 22.8759 39.3053 23.1449 39.1827 23.441C39.06 23.7371 38.9969 24.0545 38.9969 24.375C38.9969 24.6955 39.06 25.0129 39.1827 25.309C39.3053 25.6051 39.4851 25.8741 39.7118 26.1007L50.1784 36.5625H21.9375Z" fill="white"/>
</svg>
